<?xml version="1.0" standalone="no"?>
<!DOCTYPE svg PUBLIC "-//W3C//DTD SVG 20010904//EN"
 "http://www.w3.org/TR/2001/REC-SVG-20010904/DTD/svg10.dtd">
<svg version="1.0" xmlns="http://www.w3.org/2000/svg"
 width="1440.000000pt" height="1920.000000pt" viewBox="0 0 1440.000000 1920.000000"
 preserveAspectRatio="xMidYMid meet">

<g transform="translate(0.000000,1920.000000) scale(0.100000,-0.100000)"
fill="#000000" stroke="none">
<path d="M6495 16430 c-3 -5 -15 -6 -27 -2 -11 3 -19 1 -16 -4 4 -5 -55 -9
-140 -9 -143 -1 -286 -20 -262 -35 7 -5 -13 -17 -49 -31 -34 -13 -61 -29 -61
-35 0 -7 -7 -14 -15 -18 -8 -3 -12 -11 -10 -18 4 -9 -15 -23 -54 -41 -32 -15
-64 -27 -70 -27 -6 0 -11 -6 -11 -13 0 -15 -41 -37 -66 -37 -9 0 -22 -7 -30
-15 -9 -8 -24 -15 -35 -15 -11 0 -17 -4 -14 -10 3 -5 -7 -12 -22 -15 -15 -3
-62 -20 -103 -36 -41 -17 -102 -41 -135 -53 -33 -12 -79 -34 -102 -49 -24 -15
-47 -27 -53 -27 -20 0 -136 -60 -165 -85 -16 -15 -23 -24 -15 -20 10 4 9 2 -2
-8 -21 -16 -24 -47 -5 -47 6 0 2 -8 -10 -18 -27 -21 -76 -122 -60 -122 7 0 3
-7 -8 -16 -41 -30 -165 -147 -162 -151 3 -2 -7 -16 -22 -32 -51 -53 -81 -93
-81 -107 0 -8 -8 -23 -17 -33 -22 -24 -34 -38 -94 -113 -26 -33 -51 -74 -55
-91 -4 -18 -22 -50 -40 -73 -19 -23 -34 -46 -34 -51 0 -6 -9 -22 -21 -37 -14
-18 -16 -26 -7 -26 15 0 18 -47 4 -69 -10 -15 -17 -54 -17 -86 0 -11 -7 -31
-15 -44 -12 -18 -13 -25 -4 -31 9 -5 9 -9 1 -14 -16 -11 -13 -36 5 -36 8 0 12
-4 9 -10 -3 -5 0 -10 8 -10 14 0 17 -56 3 -78 -3 -6 -2 -13 3 -16 5 -4 8 -18
5 -31 -2 -14 0 -33 4 -43 5 -9 6 -43 3 -75 -5 -41 -4 -61 5 -68 10 -8 10 -15
2 -29 -9 -14 -9 -22 1 -34 7 -8 10 -19 7 -25 -4 -5 0 -15 6 -23 7 -7 13 -26
14 -43 1 -44 17 -120 33 -160 5 -11 14 -40 21 -65 7 -25 25 -72 40 -105 14
-33 34 -87 44 -120 10 -33 21 -67 24 -75 3 -8 15 -46 27 -85 13 -38 43 -130
69 -204 25 -73 46 -140 46 -147 0 -9 -11 -14 -27 -14 -16 0 -34 -4 -42 -9 -17
-11 -25 -51 -11 -51 6 0 10 5 10 10 0 21 26 9 44 -20 9 -17 28 -38 42 -47 17
-11 23 -21 19 -34 -5 -15 -1 -19 18 -19 28 0 97 -65 97 -92 0 -9 4 -19 9 -22
5 -3 11 -20 13 -38 4 -25 0 -37 -15 -50 -15 -13 -16 -18 -5 -18 12 0 26 -23
56 -93 2 -4 0 -7 -5 -6 -12 4 -63 -23 -63 -33 0 -4 -8 -8 -17 -8 -17 -1 -17
-2 0 -14 18 -14 17 -15 -2 -21 -23 -7 -23 -34 -1 -108 13 -43 5 -63 -12 -33
-13 23 -22 84 -21 139 1 20 -3 37 -8 37 -5 0 -9 21 -8 48 0 26 -4 73 -9 105
-5 31 -5 57 0 57 4 0 8 -8 9 -17 0 -15 2 -15 9 2 7 16 9 16 9 4 1 -15 29 -35
37 -26 8 7 -31 77 -43 77 -7 0 -13 5 -13 10 0 6 -9 10 -20 10 -11 0 -20 6 -20
13 0 8 -3 8 -9 -2 -8 -12 -12 -12 -25 -2 -9 8 -16 19 -16 26 0 7 -6 13 -12 12
-42 -1 -49 3 -43 26 7 21 5 20 -19 -5 -14 -15 -26 -34 -26 -42 0 -53 84 -258
166 -406 7 -14 14 -33 14 -43 0 -10 9 -36 19 -57 11 -22 17 -49 14 -60 -3 -11
-1 -26 5 -33 5 -6 13 -28 17 -47 8 -43 28 -90 36 -90 4 0 19 -20 33 -45 15
-25 31 -45 36 -45 6 0 10 -7 10 -16 0 -9 6 -14 13 -11 15 5 13 95 -2 110 -6 6
-11 19 -11 30 0 10 -4 15 -10 12 -5 -3 -10 0 -10 9 0 8 -4 16 -8 18 -12 4 -24
58 -14 58 5 0 23 -18 41 -40 23 -29 39 -40 60 -40 22 0 27 -4 27 -21 -1 -12 5
-24 12 -26 16 -6 15 22 -3 75 -9 24 -18 67 -20 95 -6 65 -10 90 -23 147 -18
76 -33 154 -36 185 -2 17 -9 58 -15 92 -31 163 -59 389 -50 398 12 12 12 28 0
21 -5 -4 -7 2 -4 12 2 10 18 26 34 36 16 10 27 22 24 27 -4 5 -3 9 2 9 4 0 13
12 20 26 10 21 10 24 -2 14 -9 -7 -15 -8 -20 0 -5 9 32 30 55 30 5 0 12 5 16
11 5 9 -4 10 -31 5 -25 -5 -35 -4 -30 4 3 5 11 8 16 5 5 -4 9 -1 9 4 0 6 3 10
8 9 4 -2 8 2 9 7 1 6 -5 9 -13 9 -22 -3 -17 4 16 21 18 9 30 23 30 35 0 11 5
20 10 20 6 0 10 5 10 12 0 9 -3 9 -12 0 -7 -7 -18 -12 -25 -12 -20 0 -15 24 7
38 23 14 27 37 5 28 -16 -6 -19 3 -9 28 3 9 11 13 17 9 6 -3 7 -1 3 5 -11 18
-23 14 -51 -15 -14 -15 -25 -22 -25 -15 0 6 4 12 8 12 5 0 18 20 31 45 18 36
20 48 11 66 -8 14 -9 24 -2 31 15 15 44 1 41 -19 -3 -33 1 -36 21 -18 11 10
20 27 20 37 0 11 5 16 10 13 6 -3 7 -18 4 -32 -6 -24 -5 -25 20 -21 24 5 25 4
13 -11 -8 -9 -12 -22 -10 -28 3 -7 -3 -13 -12 -13 -12 0 -15 6 -10 19 6 21 -9
36 -25 26 -8 -5 -8 -11 0 -20 6 -7 10 -17 8 -21 -3 -15 30 -84 41 -84 15 0 14
17 -1 22 -15 5 -1 28 18 28 8 0 14 -6 14 -14 0 -22 -26 -77 -32 -70 -4 3 -4
-3 -1 -15 7 -27 12 -26 22 2 9 22 9 21 21 -8 7 -16 14 -24 17 -17 7 17 23 15
23 -3 0 -8 5 -15 11 -15 7 0 9 11 6 29 -5 23 -2 31 11 34 16 4 16 5 0 6 -14 1
-18 10 -18 36 0 31 -3 35 -27 36 -24 0 -25 2 -9 8 14 5 16 10 8 15 -7 4 -10
12 -7 17 4 5 1 9 -4 9 -6 0 -11 5 -11 10 0 6 7 10 16 10 14 0 14 1 0 16 -9 8
-16 22 -16 31 0 9 -6 13 -15 9 -17 -6 -21 19 -4 30 8 4 7 9 -2 15 -12 7 -12 9
0 9 10 0 11 3 2 13 -6 8 -7 17 -3 21 4 4 -5 5 -19 1 -21 -5 -27 -2 -32 14 -3
12 -1 23 4 26 5 3 3 15 -4 27 -8 15 -9 22 -1 25 6 2 9 15 6 28 -3 20 0 25 16
25 21 0 40 32 23 38 -6 2 -11 10 -11 18 0 9 5 12 11 8 7 -4 9 0 5 13 -4 12 -1
25 9 33 13 10 15 9 15 -9 0 -11 5 -21 10 -21 6 0 10 10 10 22 0 20 1 20 19 4
16 -15 19 -15 31 -1 8 10 9 15 1 15 -23 0 -10 22 19 33 17 7 30 19 30 28 0 10
6 20 13 22 7 3 5 6 -5 6 -10 1 -18 5 -18 11 0 5 15 8 35 5 27 -3 35 -1 35 12
0 12 7 14 30 10 19 -4 30 -2 30 5 0 15 31 37 53 38 10 0 16 4 13 9 -3 5 1 12
10 15 26 10 44 7 44 -8 0 -10 7 -12 22 -8 20 5 21 6 3 12 -12 4 -15 9 -8 13
15 9 44 -3 37 -14 -3 -6 12 -7 35 -4 22 2 43 1 46 -4 3 -6 18 -6 36 -1 24 7
30 6 26 -4 -4 -9 2 -12 19 -8 13 2 24 0 24 -6 0 -6 9 -8 20 -5 11 3 32 2 47
-2 l28 -7 -25 -20 -25 -21 24 8 c21 6 23 5 17 -11 -6 -18 -5 -18 9 0 8 11 15
27 15 37 0 11 11 19 35 23 21 4 35 13 35 21 0 8 7 15 15 15 9 0 15 -9 15 -23
0 -13 9 -32 20 -42 11 -10 20 -29 20 -42 0 -20 5 -23 40 -23 22 0 40 -4 40
-10 0 -5 -15 -10 -32 -10 -88 -1 -110 -36 -25 -42 28 -2 54 0 55 4 6 14 79 9
92 -7 7 -8 17 -12 22 -9 5 3 16 -2 23 -12 14 -18 14 -18 15 -1 0 11 5 15 11
11 7 -4 10 -1 7 7 -3 8 -18 17 -34 20 -24 5 -26 7 -11 14 9 4 30 2 46 -5 34
-14 71 3 71 32 0 10 5 18 10 18 6 0 10 -4 10 -10 0 -5 5 -10 11 -10 6 0 9 7 5
15 -3 9 4 25 16 37 19 19 22 20 33 5 7 -10 16 -17 21 -17 4 0 3 5 -4 12 -19
19 -14 37 12 44 14 3 27 12 30 21 3 8 10 11 16 8 5 -3 10 1 10 9 0 14 51 46
75 46 7 0 20 10 29 23 l15 22 21 -24 20 -23 1 23 1 24 8 -25 c8 -24 8 -24 9 6
1 20 6 31 16 31 8 0 15 -3 15 -7 0 -7 45 -30 57 -30 4 0 -8 15 -25 33 -42 43
-29 57 54 56 32 0 76 0 97 0 38 1 51 -14 20 -22 -17 -4 -17 -5 0 -6 13 -1 17
-9 16 -33 -1 -31 -1 -32 -9 -8 l-8 25 -1 -26 c-1 -14 4 -30 10 -36 8 -8 8 -22
0 -49 -6 -22 -11 -43 -10 -49 1 -17 28 49 29 71 0 11 7 29 16 40 14 18 15 16
9 -25 -3 -24 -16 -67 -27 -95 -21 -46 -23 -48 -29 -26 -6 22 -7 22 -8 4 -1
-11 -4 -24 -8 -28 -4 -3 -8 -12 -9 -19 -3 -20 -46 -110 -65 -134 -9 -12 -20
-19 -24 -15 -3 4 -6 2 -5 -3 7 -32 -35 -58 -52 -32 -5 7 -7 2 -6 -13 2 -19 -2
-26 -19 -28 -14 -2 -23 -10 -23 -22 0 -14 -8 -18 -34 -18 -22 0 -37 6 -41 16
-5 13 -8 12 -20 -4 -14 -18 -14 -18 -15 6 -1 14 -4 19 -7 11 -8 -20 -40 -50
-47 -44 -3 3 -8 -2 -12 -11 -4 -12 -19 -16 -55 -16 -41 0 -49 3 -49 19 0 19
-34 31 -91 31 -16 0 -29 4 -29 9 0 5 -17 12 -37 17 -23 4 -31 9 -20 11 9 3 17
9 17 15 0 6 9 3 19 -6 24 -22 69 -13 50 10 -10 12 -6 13 22 8 26 -4 30 -3 19
5 -12 9 -10 11 12 11 15 0 29 4 32 9 3 4 29 11 58 14 29 3 67 12 83 21 17 9
44 16 61 16 17 0 33 3 37 6 10 10 -4 34 -20 34 -8 0 -12 -4 -9 -9 3 -5 -5 -11
-19 -13 -14 -3 -26 0 -29 8 -7 19 -26 18 -26 -1 0 -23 -47 -19 -55 5 -7 23
-35 27 -35 6 0 -8 -9 -18 -20 -21 -11 -3 -20 -11 -20 -17 0 -7 -5 -7 -14 1 -7
6 -21 9 -30 5 -19 -7 -34 22 -18 38 8 8 15 8 27 -2 20 -16 20 -3 0 17 -14 14
-18 13 -34 -6 -10 -11 -21 -18 -25 -14 -3 3 -6 1 -6 -5 0 -7 5 -12 10 -12 6 0
10 -5 10 -11 0 -7 -14 -8 -40 -4 -30 5 -40 3 -40 -7 0 -10 -2 -11 -9 0 -6 10
-10 10 -20 -2 -7 -8 -18 -12 -26 -10 -7 3 -15 -3 -18 -13 -4 -17 -5 -17 -6 1
-1 18 -18 18 -65 0 -9 -3 -16 -1 -16 5 0 6 11 13 25 17 14 3 22 10 19 15 -7
12 -44 11 -44 -1 0 -5 -18 -10 -40 -10 -28 0 -40 -4 -40 -14 0 -8 6 -17 13
-19 6 -3 3 -6 -9 -6 -11 -1 -29 -10 -40 -22 -10 -11 -26 -18 -36 -16 -10 3
-18 1 -18 -5 0 -6 -9 -8 -19 -5 -14 3 -18 1 -14 -9 3 -8 -1 -14 -11 -14 -9 0
-16 -7 -16 -15 0 -8 -16 -18 -37 -24 -51 -14 -213 -21 -213 -10 0 5 -9 9 -20
9 -11 0 -20 -6 -20 -14 0 -20 -27 -40 -32 -24 -3 7 -7 2 -10 -10 -5 -18 -3
-22 10 -18 36 10 130 25 182 29 30 3 62 7 70 11 8 3 33 7 55 9 22 3 48 8 57
12 10 4 26 1 38 -8 14 -10 36 -13 71 -9 50 5 51 4 44 -19 -7 -20 -5 -22 6 -12
16 13 89 14 89 1 0 -4 -7 -8 -16 -8 -11 0 -14 -6 -9 -21 5 -14 3 -20 -5 -17
-6 2 -11 7 -10 12 3 14 -20 24 -41 19 -12 -3 -19 -14 -19 -29 0 -14 -6 -24
-14 -24 -7 0 -19 -7 -26 -15 -10 -12 -10 -15 2 -15 8 0 19 5 26 12 8 8 15 9
22 2 13 -13 -70 -56 -109 -58 -14 -1 -30 -4 -36 -8 -5 -3 -35 -9 -65 -13 -95
-13 -102 -26 -10 -19 47 4 112 8 145 10 33 2 108 7 167 12 70 5 109 4 112 -3
3 -5 10 -2 16 8 13 21 32 23 24 2 -4 -8 -1 -15 5 -15 6 0 11 4 11 9 0 5 10 7
22 3 16 -4 20 -2 15 10 -4 11 2 17 23 21 35 8 35 37 0 54 -24 12 -24 12 12 13
28 0 36 -4 32 -14 -7 -19 83 -16 95 3 5 7 14 10 20 6 9 -5 9 -10 0 -21 -9 -11
-8 -14 4 -14 9 0 21 -8 26 -17 9 -16 10 -15 11 8 0 29 28 59 53 59 9 0 17 -7
17 -15 0 -17 25 -20 35 -5 3 6 16 11 28 11 17 1 18 2 5 6 -14 3 -27 23 -15 23
1 0 17 4 36 10 31 9 33 8 18 -8 -18 -19 -13 -31 20 -49 27 -16 33 -16 33 -3 0
6 -7 10 -15 10 -23 0 -18 21 12 52 l26 27 19 -21 c10 -12 18 -17 18 -12 0 6
-5 15 -11 21 -17 17 -1 37 17 22 11 -9 14 -9 14 0 0 8 8 10 21 6 14 -5 19 -3
15 3 -11 18 14 25 76 23 43 -1 58 2 53 10 -9 14 15 30 36 24 9 -3 26 4 39 15
25 22 36 25 113 35 52 7 59 16 22 33 -21 10 -23 9 -18 -6 6 -15 5 -15 -10 -3
-15 11 -17 11 -17 -1 0 -21 -73 -32 -101 -16 -17 11 -22 10 -35 -6 -12 -18
-14 -18 -14 -3 0 21 -24 32 -42 20 -7 -4 -22 -8 -33 -8 -11 0 -19 -5 -18 -12
2 -7 -3 -10 -11 -7 -7 3 -16 -2 -20 -11 -4 -12 -13 -15 -31 -11 -25 6 -36 -8
-12 -17 6 -3 2 -6 -10 -6 -12 -1 -23 5 -26 12 -3 8 -10 6 -21 -8 -19 -25 -21
-13 -2 23 8 16 14 37 13 47 -1 12 3 19 11 17 8 -1 11 2 8 7 -8 12 14 61 26 61
5 0 7 4 4 9 -3 5 2 19 12 32 10 13 22 32 25 42 4 11 12 15 18 11 8 -4 9 -3 5
4 -8 13 29 80 90 164 31 42 44 54 53 45 8 -8 11 -8 11 1 0 7 6 11 13 10 6 -2
11 5 9 15 -4 22 7 22 27 -2 15 -17 21 -18 42 -8 18 10 25 23 30 55 3 23 2 42
-2 42 -14 0 -16 39 -2 44 8 3 11 10 8 16 -3 5 -1 10 6 10 8 0 9 11 4 38 -15
81 -15 104 1 98 19 -7 15 24 -6 41 -13 10 -9 14 21 27 20 8 46 12 57 9 24 -6
29 6 10 25 -9 9 -3 10 26 7 21 -3 43 -8 50 -12 6 -4 5 0 -2 9 -11 14 -10 17
10 20 17 2 22 9 21 25 -2 13 1 22 5 22 23 -4 42 2 37 11 -7 12 37 4 68 -12 11
-5 17 -5 17 2 0 5 -21 16 -47 23 l-47 12 34 6 35 6 -27 11 c-38 16 -35 26 4
18 l31 -6 -19 22 c-17 20 -17 21 -1 8 16 -12 20 -12 27 0 7 11 14 12 35 2 16
-8 24 -8 20 -2 -4 7 3 9 22 4 33 -8 39 -13 47 -39 3 -12 4 -9 2 8 -2 15 1 27
5 27 5 0 9 -4 9 -10 0 -5 7 -10 16 -10 8 0 12 5 9 10 -9 15 7 12 29 -5 11 -8
28 -15 38 -15 10 0 18 -5 18 -11 0 -5 14 -15 30 -20 17 -6 30 -14 30 -18 0 -4
16 -7 35 -7 38 0 43 7 20 30 -9 9 -11 17 -5 21 5 3 10 1 10 -4 0 -6 6 -11 13
-11 6 0 27 -14 45 -31 23 -22 32 -39 32 -62 0 -24 3 -28 10 -17 8 13 10 13 10
-1 0 -9 9 -28 20 -42 24 -30 26 -45 5 -27 -31 25 -14 -6 25 -48 23 -24 38 -47
34 -53 -3 -6 6 -28 20 -50 22 -33 24 -40 11 -45 -8 -4 -15 -14 -15 -24 0 -21
23 -43 35 -32 5 4 5 2 1 -5 -3 -6 2 -17 11 -23 13 -8 14 -13 6 -16 -30 -13 -6
-42 55 -69 17 -8 32 -19 32 -24 0 -15 -13 -14 -28 1 -9 9 -12 9 -12 0 0 -7
-13 -12 -30 -12 -16 0 -30 -5 -30 -11 0 -6 9 -8 23 -4 12 4 17 3 10 -2 -14
-10 8 -43 31 -47 9 -1 17 -6 17 -11 0 -17 -29 -13 -50 6 -21 20 -21 20 -21 -1
0 -11 5 -20 10 -20 6 0 10 -9 10 -19 0 -21 19 -31 55 -31 24 0 90 -48 80 -58
-13 -13 -46 -11 -51 3 -4 9 -17 15 -33 14 -18 -1 -20 -3 -8 -6 11 -3 27 -13
38 -24 20 -20 44 -25 53 -10 3 5 16 7 29 3 32 -8 68 -33 61 -43 -3 -5 5 -9 17
-9 12 0 28 -8 35 -17 12 -17 13 -17 14 -1 0 9 -5 20 -10 23 -6 4 -8 11 -5 16
4 5 -6 14 -20 21 -16 7 -21 14 -14 18 7 5 -1 15 -20 29 -36 26 -41 45 -8 36
18 -5 75 -60 127 -122 14 -17 12 -36 -2 -27 -10 6 -10 4 0 -7 6 -7 12 -20 11
-28 0 -11 -2 -12 -6 -3 -2 6 -10 12 -16 12 -7 -1 -2 -9 11 -19 29 -25 28 -35
-4 -27 -22 6 -25 4 -19 -14 5 -15 3 -19 -9 -14 -10 4 -16 1 -16 -9 0 -8 -5
-17 -11 -19 -9 -3 -9 -10 0 -27 7 -12 10 -29 7 -36 -3 -8 0 -16 7 -19 9 -3 9
-5 0 -5 -19 -1 -16 -19 5 -25 9 -3 23 -20 31 -38 8 -18 21 -41 29 -50 11 -13
12 -21 4 -31 -7 -7 -8 -18 -3 -23 4 -5 14 -30 21 -56 7 -27 16 -48 20 -48 5 0
17 -3 27 -6 14 -4 12 -1 -6 16 l-24 21 33 -6 c35 -6 35 -3 14 50 -7 18 -6 19
9 6 15 -12 19 -12 32 5 15 21 30 132 22 164 -3 10 0 21 6 23 9 3 10 43 6 227
-1 36 -6 71 -12 78 -8 10 -8 15 1 20 11 8 10 117 -2 129 -3 3 -1 12 5 20 9 10
8 17 -2 29 -8 10 -9 18 -2 22 5 4 10 14 11 22 5 87 3 112 -9 127 -11 13 -11
17 -1 20 6 3 12 20 12 39 0 19 5 34 10 34 6 0 3 11 -6 25 -10 15 -14 34 -10
49 3 14 2 27 -4 31 -5 3 -7 12 -3 20 3 9 0 21 -6 28 -7 9 -8 24 -2 43 4 16 6
43 5 59 -11 98 -15 119 -25 131 -6 7 -8 17 -5 23 7 11 -8 95 -25 136 -7 17
-11 40 -10 53 1 12 -3 22 -9 22 -7 0 -10 6 -7 14 3 7 -10 30 -29 50 -27 29
-30 36 -16 36 30 0 22 30 -17 66 -34 32 -35 34 -14 40 21 6 21 6 2 25 -10 10
-23 19 -28 19 -5 0 -23 14 -41 30 -18 17 -37 30 -43 30 -6 0 -7 3 -4 7 4 3 -4
21 -18 39 -17 23 -21 34 -12 37 6 3 0 6 -14 6 -20 1 -28 8 -33 26 -4 15 -14
25 -24 25 -18 0 -42 18 -42 31 0 4 8 10 18 12 9 3 -1 5 -23 6 -37 2 -39 3 -21
16 19 14 19 15 -4 35 -15 13 -18 20 -9 20 11 0 11 2 -1 10 -8 5 -26 10 -38 10
-34 0 -74 34 -59 49 8 8 5 11 -14 11 -48 0 -69 11 -69 37 0 13 4 22 9 18 5 -3
12 -1 15 4 7 10 -79 25 -94 16 -5 -3 -10 3 -10 14 0 13 -7 21 -17 21 -9 0 -13
3 -9 7 7 7 -97 43 -126 43 -10 0 -18 5 -18 10 0 6 -10 10 -22 10 -16 0 -19 3
-10 8 20 13 3 42 -27 43 l-26 1 25 8 c24 8 24 8 3 9 -13 1 -23 4 -24 9 0 4 -2
15 -4 25 -2 9 1 17 6 17 6 0 5 8 -1 20 -9 16 -15 18 -31 10 -22 -12 -89 -3
-89 12 0 5 -6 6 -12 1 -7 -4 -23 -6 -35 -4 -13 1 -23 -2 -23 -7 0 -6 -7 -13
-16 -16 -8 -3 -12 -2 -9 4 3 6 1 10 -5 10 -6 0 -8 5 -4 12 5 8 2 9 -9 5 -12
-5 -17 -1 -17 13 0 24 -42 45 -89 45 -36 0 -35 1 -88 -81 -12 -18 -13 -18 -23
-1 -6 9 -16 17 -22 17 -6 0 -34 21 -62 46 -68 61 -181 134 -207 134 -19 0 -20
-2 -8 -17 8 -9 10 -14 4 -12 -5 3 -32 16 -60 29 -46 22 -63 24 -240 26 -104 1
-209 7 -233 12 -23 6 -44 6 -47 2z m1437 -1475 c7 -9 19 -22 26 -30 15 -17 15
-25 -1 -25 -15 0 -67 47 -67 60 0 15 28 12 42 -5z m-412 -45 c0 -5 -4 -10 -10
-10 -5 0 -10 5 -10 10 0 6 5 10 10 10 6 0 10 -4 10 -10z m-230 -485 c0 -18 -5
-25 -20 -25 -13 0 -20 7 -20 20 0 22 15 27 23 8 3 -8 6 -6 6 5 1 27 11 20 11
-8z m-553 -47 c-3 -8 -6 -5 -6 6 -1 11 2 17 5 13 3 -3 4 -12 1 -19z m357 7
c-4 -8 -10 -15 -15 -15 -5 0 -9 7 -9 15 0 8 7 15 15 15 9 0 12 -6 9 -15z m-34
-92 c-10 -16 -11 -15 -6 7 3 14 6 34 7 45 1 13 3 11 6 -7 2 -15 -1 -35 -7 -45z
m1355 22 c17 -13 25 -24 18 -25 -6 0 -18 6 -25 13 -7 7 -22 18 -33 25 -14 8
-16 11 -5 12 8 0 29 -11 45 -25z m-71 8 c-5 -5 -12 -12 -16 -18 -4 -6 -8 -2
-8 8 0 9 7 17 17 17 9 0 12 -3 7 -7z m-2674 -23 c0 -5 -2 -10 -4 -10 -3 0 -8
5 -11 10 -3 6 -1 10 4 10 6 0 11 -4 11 -10z m518 -38 c2 -7 -3 -12 -12 -12 -9
0 -16 7 -16 16 0 17 22 14 28 -4z m307 -12 c3 -5 1 -10 -4 -10 -6 0 -11 5 -11
10 0 6 2 10 4 10 3 0 8 -4 11 -10z m1955 -11 c0 -6 -4 -7 -10 -4 -5 3 -10 11
-10 16 0 6 5 7 10 4 6 -3 10 -11 10 -16z m94 -4 c11 -8 18 -17 15 -19 -2 -3
-15 4 -29 14 -14 11 -20 20 -15 19 6 0 19 -6 29 -14z m-2424 -35 c0 -22 -4
-40 -10 -40 -5 0 -10 18 -10 40 0 22 5 40 10 40 6 0 10 -18 10 -40z m37 -22
c-2 -13 -4 -3 -4 22 0 25 2 35 4 23 2 -13 2 -33 0 -45z m2313 -12 c9 -12 8
-15 -9 -13 -11 1 -23 7 -25 14 -7 18 19 16 34 -1z m148 -19 c5 -24 -15 -21
-21 4 -3 13 -1 19 6 16 7 -2 13 -11 15 -20z m-3378 -38 c0 -24 -23 -21 -28 4
-2 10 3 17 12 17 10 0 16 -9 16 -21z m37 -11 c-3 -7 -5 -2 -5 12 0 14 2 19 5
13 2 -7 2 -19 0 -25z m3363 12 c0 -5 -7 -10 -15 -10 -8 0 -15 5 -15 10 0 6 7
10 15 10 8 0 15 -4 15 -10z m-3640 -64 c0 -3 -4 -8 -10 -11 -5 -3 -10 -1 -10
4 0 6 5 11 10 11 6 0 10 -2 10 -4z m160 -37 c0 -5 -4 -9 -10 -9 -5 0 -10 7
-10 16 0 8 5 12 10 9 6 -3 10 -10 10 -16z m3615 11 c3 -5 1 -10 -4 -10 -6 0
-11 5 -11 10 0 6 2 10 4 10 3 0 8 -4 11 -10z m-5 -85 c7 -9 8 -15 2 -15 -5 0
-12 7 -16 15 -3 8 -4 15 -2 15 2 0 9 -7 16 -15z m-1730 -15 c0 -5 -2 -10 -4
-10 -3 0 -8 5 -11 10 -3 6 -1 10 4 10 6 0 11 -4 11 -10z m1577 -5 c0 -11 -4
-12 -14 -4 -7 6 -13 13 -13 15 0 2 6 4 13 4 8 0 14 -7 14 -15z m67 0 c-4 -8
-7 -15 -9 -15 -2 0 -5 7 -9 15 -3 9 0 15 9 15 9 0 12 -6 9 -15z m-1679 -5 c3
-5 1 -10 -4 -10 -6 0 -11 5 -11 10 0 6 2 10 4 10 3 0 8 -4 11 -10z m1587 -25
c3 -14 1 -25 -3 -25 -5 0 -9 11 -9 25 0 14 2 25 4 25 2 0 6 -11 8 -25z m-3478
-1 c5 -14 4 -15 -9 -4 -17 14 -19 20 -6 20 5 0 12 -7 15 -16z m1856 6 c0 -5
-9 -10 -20 -10 -11 0 -20 5 -20 10 0 6 9 10 20 10 11 0 20 -4 20 -10z m-833
-16 c-3 -3 -12 -4 -19 -1 -8 3 -5 6 6 6 11 1 17 -2 13 -5z m-1087 -26 c0 -18
-2 -20 -9 -8 -6 8 -7 18 -5 22 9 14 14 9 14 -14z m1150 2 c0 -13 -11 -13 -30
0 -12 8 -11 10 8 10 12 0 22 -4 22 -10z m-1107 -42 c-2 -48 -2 -48 -13 -48 -5
0 -10 7 -10 15 0 19 -7 19 -27 0 -8 -9 -18 -13 -21 -10 -4 3 0 10 7 14 8 5 10
14 6 22 -5 8 -5 11 -1 7 5 -4 17 2 29 13 28 26 32 24 30 -13z m28 5 c-12 -20
-14 -14 -5 12 4 9 9 14 11 11 3 -2 0 -13 -6 -23z m1604 17 c3 -5 1 -10 -4 -10
-6 0 -11 5 -11 10 0 6 2 10 4 10 3 0 8 -4 11 -10z m-485 -50 c0 -15 -6 -20
-27 -19 -24 2 -25 2 -5 6 12 2 22 11 22 19 0 8 2 14 5 14 3 0 5 -9 5 -20z
m-1055 0 c3 -5 -1 -10 -10 -10 -9 0 -13 5 -10 10 3 6 8 10 10 10 2 0 7 -4 10
-10z m1365 0 c13 -9 13 -10 0 -10 -8 0 -22 5 -30 10 -13 9 -13 10 0 10 8 0 22
-5 30 -10z m2207 -32 c-3 -8 -6 -5 -6 6 -1 11 2 17 5 13 3 -3 4 -12 1 -19z
m-2577 -8 c0 -5 -4 -10 -10 -10 -5 0 -10 5 -10 10 0 6 5 10 10 10 6 0 10 -4
10 -10z m90 0 c0 -5 -7 -10 -15 -10 -8 0 -15 5 -15 10 0 6 7 10 15 10 8 0 15
-4 15 -10z m2460 -53 c0 -5 -4 -5 -10 -2 -5 3 -10 14 -10 23 0 15 2 15 10 2 5
-8 10 -19 10 -23z m-3728 1 c-7 -7 -12 -8 -12 -2 0 14 12 26 19 19 2 -3 -1
-11 -7 -17z m3708 -73 c0 -8 -4 -15 -10 -15 -5 0 -10 7 -10 15 0 8 5 15 10 15
6 0 10 -7 10 -15z"/>
<path d="M7635 14930 c3 -5 8 -10 11 -10 2 0 4 5 4 10 0 6 -5 10 -11 10 -5 0
-7 -4 -4 -10z"/>
<path d="M7375 14750 c-3 -5 -2 -10 4 -10 5 0 13 5 16 10 3 6 2 10 -4 10 -5 0
-13 -4 -16 -10z"/>
<path d="M7330 14550 c0 -5 5 -10 10 -10 6 0 10 5 10 10 0 6 -4 10 -10 10 -5
0 -10 -4 -10 -10z"/>
<path d="M7330 14459 c0 -11 5 -17 10 -14 6 3 10 13 10 21 0 8 -4 14 -10 14
-5 0 -10 -9 -10 -21z"/>
<path d="M6510 14220 c0 -5 5 -10 10 -10 6 0 10 5 10 10 0 6 -4 10 -10 10 -5
0 -10 -4 -10 -10z"/>
<path d="M5490 14214 c0 -3 6 -12 14 -19 12 -12 15 -12 20 1 9 24 7 31 -4 14
-6 -10 -10 -11 -10 -2 0 6 -4 12 -10 12 -5 0 -10 -3 -10 -6z"/>
<path d="M6010 14185 c-7 -14 -23 -25 -34 -26 -18 -1 -18 -2 4 -9 23 -7 23 -8
-10 -11 -19 -1 -41 -3 -48 -3 -8 -1 -18 -9 -23 -19 -6 -9 -21 -17 -34 -17 -16
0 -25 -6 -25 -15 0 -17 16 -20 25 -5 3 6 17 10 31 10 15 0 24 6 24 15 0 9 9
15 25 15 14 0 28 -7 31 -15 4 -8 10 -15 15 -15 5 0 9 7 9 15 0 8 9 15 20 15
11 0 20 6 20 14 0 8 6 17 13 19 6 3 1 6 -13 7 -23 1 -24 2 -7 14 14 11 15 15
4 25 -11 8 -17 5 -27 -14z"/>
<path d="M7216 14165 c-3 -9 0 -15 9 -15 9 0 12 6 9 15 -4 8 -7 15 -9 15 -2 0
-5 -7 -9 -15z"/>
<path d="M7110 14150 c-9 -6 -10 -10 -3 -10 6 0 15 5 18 10 8 12 4 12 -15 0z"/>
<path d="M6891 14130 c-1 -24 -60 -45 -121 -42 -40 2 -51 0 -40 -8 10 -6 11
-10 3 -10 -7 0 -13 -4 -13 -10 0 -12 32 -13 46 -2 5 5 35 14 67 21 57 12 74
27 64 53 -4 9 -6 9 -6 -2z"/>
<path d="M5858 14123 c7 -3 16 -2 19 1 4 3 -2 6 -13 5 -11 0 -14 -3 -6 -6z"/>
<path d="M6440 14120 c0 -5 5 -10 10 -10 6 0 10 5 10 10 0 6 -4 10 -10 10 -5
0 -10 -4 -10 -10z"/>
<path d="M5351 14094 c0 -11 3 -14 6 -6 3 7 2 16 -1 19 -3 4 -6 -2 -5 -13z"/>
<path d="M6768 14103 c6 -2 18 -2 25 0 6 3 1 5 -13 5 -14 0 -19 -2 -12 -5z"/>
<path d="M6218 14073 c7 -3 16 -2 19 1 4 3 -2 6 -13 5 -11 0 -14 -3 -6 -6z"/>
<path d="M6570 14070 c0 -5 5 -10 10 -10 6 0 10 5 10 10 0 6 -4 10 -10 10 -5
0 -10 -4 -10 -10z"/>
<path d="M5591 14041 c-9 -6 -10 -11 -2 -15 6 -4 11 -3 11 3 0 5 8 12 18 14
12 3 13 5 2 6 -8 0 -21 -3 -29 -8z"/>
<path d="M8581 14034 c0 -11 3 -14 6 -6 3 7 2 16 -1 19 -3 4 -6 -2 -5 -13z"/>
<path d="M8430 14030 c8 -5 20 -10 25 -10 6 0 3 5 -5 10 -8 5 -19 10 -25 10
-5 0 -3 -5 5 -10z"/>
<path d="M8465 14011 c-7 -13 41 -34 64 -28 12 4 11 5 -3 6 -11 0 -27 8 -37
17 -11 10 -19 12 -24 5z"/>
<path d="M7200 13996 c0 -9 5 -16 10 -16 6 0 10 4 10 9 0 6 -4 13 -10 16 -5 3
-10 -1 -10 -9z"/>
<path d="M7438 14003 c6 -2 18 -2 25 0 6 3 1 5 -13 5 -14 0 -19 -2 -12 -5z"/>
<path d="M8430 13990 c6 -11 13 -20 16 -20 2 0 0 9 -6 20 -6 11 -13 20 -16 20
-2 0 0 -9 6 -20z"/>
<path d="M5375 13969 c-10 -15 3 -25 16 -12 7 7 7 13 1 17 -6 3 -14 1 -17 -5z"/>
<path d="M6481 13976 c12 -10 79 -16 79 -6 0 5 -19 10 -42 10 -23 0 -39 -2
-37 -4z"/>
<path d="M8457 13934 c-3 -4 1 -13 9 -21 8 -9 13 -22 10 -29 -5 -13 40 -44 64
-44 19 0 10 20 -12 30 -13 5 -17 9 -10 9 18 1 15 21 -4 21 -9 0 -24 9 -34 20
-9 11 -20 17 -23 14z"/>
<path d="M6585 13901 c-3 -5 -1 -12 5 -16 5 -3 10 1 10 9 0 18 -6 21 -15 7z"/>
<path d="M5980 13856 c0 -2 7 -7 16 -10 8 -3 12 -2 9 4 -6 10 -25 14 -25 6z"/>
<path d="M6081 13834 c0 -11 3 -14 6 -6 3 7 2 16 -1 19 -3 4 -6 -2 -5 -13z"/>
<path d="M7195 13840 c-3 -5 -2 -10 4 -10 5 0 13 5 16 10 3 6 2 10 -4 10 -5 0
-13 -4 -16 -10z"/>
<path d="M5510 13800 c-9 -6 -10 -10 -3 -10 6 0 15 5 18 10 8 12 4 12 -15 0z"/>
<path d="M6897 13803 c-4 -3 -7 -11 -7 -17 0 -6 5 -5 12 2 6 6 9 14 7 17 -3 3
-9 2 -12 -2z"/>
<path d="M5958 13753 c7 -3 16 -2 19 1 4 3 -2 6 -13 5 -11 0 -14 -3 -6 -6z"/>
<path d="M6685 13750 c3 -5 8 -10 11 -10 2 0 4 5 4 10 0 6 -5 10 -11 10 -5 0
-7 -4 -4 -10z"/>
<path d="M6000 13740 c0 -5 5 -10 10 -10 6 0 10 5 10 10 0 6 -4 10 -10 10 -5
0 -10 -4 -10 -10z"/>
<path d="M6775 13740 c-3 -5 1 -10 9 -10 9 0 16 5 16 10 0 6 -4 10 -9 10 -6 0
-13 -4 -16 -10z"/>
<path d="M6045 13720 c-3 -5 -1 -10 4 -10 6 0 11 5 11 10 0 6 -2 10 -4 10 -3
0 -8 -4 -11 -10z"/>
<path d="M6555 13720 c3 -5 13 -10 21 -10 8 0 12 5 9 10 -3 6 -13 10 -21 10
-8 0 -12 -4 -9 -10z"/>
<path d="M8833 13667 c-24 -13 -56 -52 -66 -79 -3 -10 -14 -18 -23 -18 -13 0
-15 -6 -10 -30 3 -19 1 -30 -6 -30 -6 0 -9 -2 -7 -5 3 -2 21 0 41 5 28 8 41
20 59 53 12 23 28 53 35 67 25 46 17 60 -23 37z"/>
<path d="M5265 13650 c-3 -5 -1 -10 4 -10 6 0 11 5 11 10 0 6 -2 10 -4 10 -3
0 -8 -4 -11 -10z"/>
<path d="M5748 13633 c6 -2 18 -2 25 0 6 3 1 5 -13 5 -14 0 -19 -2 -12 -5z"/>
<path d="M6720 13590 c0 -5 7 -10 15 -10 8 0 15 5 15 10 0 6 -7 10 -15 10 -8
0 -15 -4 -15 -10z"/>
<path d="M8668 13521 c-6 -40 8 -125 22 -129 5 -2 7 -17 3 -33 -3 -18 -1 -29
6 -29 6 0 11 -7 11 -16 0 -8 -4 -12 -10 -9 -12 8 -12 -7 1 -65 14 -65 18 -75
29 -64 5 5 5 25 -1 49 -6 22 -11 78 -12 125 -1 47 -6 90 -10 97 -4 7 -5 23 -2
36 4 15 0 32 -13 47 l-19 24 -5 -33z"/>
<path d="M6880 13531 c0 -10 19 -25 25 -20 1 2 -3 10 -11 17 -8 7 -14 8 -14 3z"/>
<path d="M6540 13512 c0 -5 7 -13 16 -16 10 -4 14 -1 12 6 -5 15 -28 23 -28
10z"/>
<path d="M7840 13509 c0 -5 5 -7 10 -4 6 3 10 8 10 11 0 2 -4 4 -10 4 -5 0
-10 -5 -10 -11z"/>
<path d="M7530 13501 c0 -5 -10 -9 -22 -10 -49 -2 -68 -6 -68 -14 0 -4 -4 -6
-9 -3 -5 4 -11 2 -13 -4 -1 -5 -20 -12 -41 -14 -21 -3 -49 -14 -64 -26 -14
-11 -36 -20 -49 -20 -15 0 -24 -6 -24 -16 0 -10 -6 -14 -15 -10 -11 4 -15 -2
-16 -22 -2 -24 -2 -25 -6 -4 -4 20 -10 23 -46 22 -23 -1 -45 -1 -49 0 -15 4
-43 3 -58 -3 -8 -3 -37 -7 -65 -10 -27 -2 -44 -2 -37 0 6 3 12 9 12 14 0 18
-20 9 -46 -21 -15 -16 -31 -27 -36 -23 -6 3 -7 -4 -3 -18 4 -15 3 -19 -3 -11
-5 7 -22 11 -43 8 -19 -2 -40 1 -46 6 -9 8 -13 6 -13 -6 0 -13 -8 -15 -45 -9
-27 3 -50 1 -58 -6 -8 -6 -17 -8 -20 -4 -4 3 -7 1 -7 -5 0 -7 -6 -12 -12 -12
-7 0 -22 -18 -32 -40 -21 -44 -46 -53 -46 -17 0 36 -23 78 -39 72 -8 -3 -23 4
-33 15 -21 22 -34 25 -43 10 -9 -14 -35 7 -35 26 0 8 -4 14 -8 14 -5 0 -26 16
-48 35 -21 19 -45 34 -53 33 -20 -4 -26 -28 -7 -28 11 0 16 -9 16 -27 0 -24
-1 -25 -17 -10 -16 13 -20 13 -31 1 -15 -16 -36 -19 -27 -4 3 6 -1 10 -9 10
-19 0 -20 -5 -6 -31 9 -16 7 -19 -12 -17 -13 0 -43 -5 -68 -12 -25 -7 -60 -12
-79 -11 -19 1 -68 -10 -108 -25 -41 -14 -83 -24 -94 -21 -11 3 -23 -2 -29 -11
-8 -13 -11 -14 -18 -4 -9 13 -42 7 -42 -7 0 -12 -48 -31 -78 -31 -21 0 -24 -2
-12 -10 8 -5 10 -10 4 -10 -6 0 -17 6 -23 14 -9 11 -19 11 -59 -1 -26 -8 -53
-17 -59 -19 -7 -2 -13 -15 -13 -28 0 -18 -4 -24 -15 -20 -8 4 -15 1 -15 -5 0
-6 -6 -11 -14 -11 -18 0 -58 -54 -48 -66 4 -4 -2 -2 -12 6 -18 13 -19 13 -14
-2 4 -10 1 -19 -8 -22 -8 -3 -14 -12 -14 -21 0 -8 -4 -15 -10 -15 -5 0 -10 -7
-10 -15 0 -8 -4 -15 -10 -15 -5 0 -10 -6 -10 -14 0 -29 -31 -26 -48 4 -9 16
-20 30 -24 30 -12 0 -9 38 2 42 6 2 17 26 24 55 13 49 13 52 -5 50 -11 -1 -19
-9 -19 -19 0 -10 -4 -18 -9 -18 -13 0 -22 43 -10 51 8 5 8 9 0 13 -6 4 -11 3
-11 -3 0 -6 -9 -15 -19 -20 -16 -9 -18 -8 -14 8 3 11 0 28 -7 38 -9 13 -10 14
-7 2 5 -16 -9 -39 -23 -39 -4 0 -6 14 -5 30 1 17 -2 30 -7 30 -4 0 -8 -7 -8
-15 0 -8 -5 -15 -11 -15 -6 0 -9 9 -6 19 4 17 1 19 -32 14 -45 -7 -53 -13 -17
-13 16 0 25 -4 21 -10 -3 -5 -20 -10 -37 -10 -27 0 -29 -2 -17 -16 10 -13 10
-17 -1 -24 -19 -12 -15 -118 5 -140 10 -11 15 -38 15 -83 0 -37 5 -69 11 -73
6 -3 9 -24 7 -45 -2 -28 0 -39 10 -39 7 0 12 -8 10 -17 -1 -10 1 -24 5 -30 5
-8 4 -13 -3 -13 -6 0 -15 10 -20 23 -9 22 -9 22 -9 -3 -1 -15 7 -30 19 -38 24
-15 27 -34 4 -25 -10 3 -6 -4 8 -18 13 -13 35 -55 48 -92 18 -52 27 -66 39
-62 30 12 35 10 48 -17 15 -30 43 -38 43 -13 0 19 16 19 23 0 4 -9 16 -13 36
-10 17 2 35 -2 41 -10 6 -7 23 -16 38 -20 15 -4 30 -12 34 -18 3 -6 23 -12 43
-13 21 -2 42 -7 49 -13 6 -5 26 -12 44 -16 26 -5 32 -10 27 -26 -7 -21 10 -27
19 -6 5 9 7 9 12 0 4 -8 15 -11 31 -7 16 5 24 3 20 -3 -4 -6 11 -18 33 -28 43
-19 46 -25 28 -43 -16 -16 -5 -15 36 2 33 14 34 14 32 -13 -2 -33 -14 -53 -28
-45 -7 4 -8 2 -4 -4 4 -7 3 -12 -3 -12 -6 0 -5 -11 2 -29 11 -30 3 -66 -13
-56 -5 3 -10 1 -10 -4 0 -6 9 -11 20 -11 10 0 24 -8 29 -17 8 -13 10 -14 11
-4 0 8 3 12 6 9 3 -4 1 -16 -5 -27 -9 -16 -9 -19 2 -15 16 6 19 -28 4 -38 -7
-4 -7 -11 1 -20 9 -11 7 -18 -8 -31 -11 -9 -26 -17 -33 -17 -7 0 -18 -9 -25
-20 -11 -17 -10 -20 8 -20 14 0 18 5 13 16 -5 14 -1 16 20 12 19 -4 27 -1 27
9 0 8 5 11 10 8 6 -3 10 -15 10 -26 0 -11 4 -18 9 -15 4 3 7 18 5 33 -3 20 0
17 10 -12 8 -22 15 -35 15 -28 1 7 8 10 16 7 11 -4 15 1 16 17 1 20 2 19 8 -6
8 -34 -16 -94 -36 -95 -17 0 -16 -10 2 -34 14 -18 15 -18 15 -2 0 9 4 15 8 12
11 -7 3 -66 -9 -66 -5 0 -5 -7 -2 -17 5 -11 3 -14 -6 -9 -7 5 -11 17 -8 27 5
20 -1 23 -27 13 -8 -3 -13 -11 -10 -18 7 -19 -23 -40 -43 -31 -16 7 -15 9 7
15 20 7 17 8 -20 9 -27 0 -40 -3 -32 -7 9 -6 10 -16 4 -32 -9 -23 -9 -23 -20
8 -10 29 -14 32 -54 31 -24 0 -37 -3 -30 -6 21 -8 13 -25 -10 -21 -13 2 -22 9
-20 16 1 6 -5 12 -14 12 -9 0 -27 10 -39 23 -13 12 -31 29 -41 37 -17 14 -17
15 11 21 17 4 23 7 14 8 -9 0 -19 8 -23 16 -3 8 -14 15 -25 15 -11 0 -22 4
-25 9 -4 5 4 7 16 4 21 -4 22 -3 6 10 -10 8 -18 24 -18 36 0 12 -6 21 -15 21
-9 0 -15 -9 -15 -24 0 -13 -7 -26 -15 -30 -8 -3 -15 -12 -15 -21 0 -18 -20
-21 -20 -2 0 6 -5 4 -11 -6 -11 -19 -6 -32 14 -32 19 0 20 -53 3 -71 -11 -11
-15 -28 -11 -57 2 -23 2 -34 -1 -24 -7 21 -24 23 -24 2 0 -8 -4 -15 -10 -15
-5 0 -10 7 -10 15 0 8 -4 15 -10 15 -5 0 -10 -7 -10 -15 0 -8 -7 -15 -15 -15
-10 0 -17 14 -21 40 -4 24 -12 40 -20 40 -8 0 -14 10 -14 23 0 13 -9 32 -20
42 -22 20 -27 45 -7 45 8 0 7 4 -3 10 -11 7 -12 12 -4 18 9 5 8 11 -2 20 -15
13 -19 6 -15 -25 3 -22 -16 -14 -23 10 -8 32 -8 35 9 39 12 2 10 9 -10 32 -14
16 -25 42 -25 58 0 17 -5 28 -13 28 -9 0 -14 12 -14 31 0 40 -27 60 -31 23 -3
-24 -4 -25 -18 -7 -12 14 -12 12 1 -14 8 -18 20 -33 25 -33 6 0 10 -5 10 -11
0 -5 -5 -7 -12 -3 -8 5 -9 0 -3 -17 12 -38 18 -112 9 -106 -5 3 -10 -14 -12
-36 -2 -23 -8 -46 -14 -52 -8 -7 -9 -6 -4 3 10 17 -9 15 -24 -3 -7 -8 -19 -15
-26 -15 -41 0 6 -54 70 -80 70 -28 82 -58 66 -157 -4 -24 -3 -40 1 -37 5 3 9
-5 9 -18 0 -47 7 -95 15 -107 4 -8 2 -17 -6 -22 -10 -6 -11 -9 -1 -9 8 0 12
-15 11 -48 -1 -26 3 -57 9 -69 7 -12 12 -37 12 -57 0 -19 5 -36 10 -38 6 -2
13 -21 15 -44 2 -22 9 -52 15 -68 5 -15 8 -32 5 -36 -3 -5 -3 -21 1 -35 5 -20
9 -23 15 -13 6 8 7 -3 3 -28 -4 -28 -1 -50 10 -70 18 -33 22 -17 5 20 -7 14
-9 33 -5 43 13 32 26 -7 22 -65 -3 -38 0 -55 9 -59 8 -2 19 -20 25 -39 7 -20
29 -53 51 -74 35 -35 44 -50 40 -72 0 -5 3 -8 8 -8 5 0 26 -35 47 -77 21 -43
42 -81 46 -84 5 -3 10 -19 12 -35 2 -17 11 -33 23 -39 11 -6 18 -16 15 -23 -2
-6 1 -12 7 -12 6 0 11 -19 11 -42 0 -24 -4 -38 -8 -33 -4 6 -15 16 -25 24 -16
12 -17 12 -11 -5 9 -24 34 -54 46 -54 4 0 8 16 8 35 0 34 0 34 21 17 57 -47
61 -52 49 -52 -8 0 -6 -7 7 -17 28 -25 58 -83 35 -69 -5 3 -9 -1 -9 -8 0 -8 8
-11 18 -9 20 6 71 -25 63 -38 -3 -5 3 -9 13 -10 10 0 13 -3 6 -6 -7 -2 -13
-11 -13 -19 0 -8 -5 -14 -11 -14 -6 0 -9 7 -5 15 3 8 1 15 -4 15 -6 0 -10 -7
-10 -15 0 -18 -17 -20 -23 -2 -2 6 -8 9 -12 5 -4 -4 -2 -14 5 -23 10 -12 16
-13 26 -4 19 15 17 1 -5 -40 l-18 -35 0 28 c0 15 -6 33 -13 39 -10 10 -11 7
-7 -13 3 -14 1 -34 -3 -45 -7 -17 -9 -17 -9 -2 -1 9 -5 17 -11 17 -14 0 -13
-77 2 -82 6 -2 12 -21 12 -41 1 -22 6 -37 14 -37 6 0 12 6 13 13 0 6 5 1 10
-12 9 -23 10 -24 24 -5 8 10 15 25 15 33 0 8 7 22 16 32 9 10 14 25 12 35 -3
16 -4 16 -19 2 -11 -11 -20 -13 -32 -6 -25 13 -22 42 3 35 11 -3 20 -1 20 5 0
6 7 8 15 4 9 -3 19 3 26 16 10 18 9 20 -4 15 -11 -4 -14 -2 -10 9 3 7 0 14 -6
14 -6 0 -11 -5 -11 -12 0 -6 -3 -9 -6 -5 -4 3 4 19 16 34 15 18 21 21 16 9 -4
-12 0 -26 10 -37 16 -17 15 -38 -2 -83 -3 -9 -1 -16 5 -16 6 0 11 10 11 21 0
18 2 20 15 9 13 -11 13 -15 3 -22 -9 -6 -5 -8 13 -6 16 2 41 -9 69 -30 28 -20
38 -32 26 -32 -10 0 -14 -4 -10 -12 4 -7 3 -8 -4 -4 -6 4 -9 14 -6 24 4 10 3
13 -3 6 -4 -6 -15 -14 -23 -17 -12 -4 -12 -6 2 -6 12 -1 19 -13 23 -38 10 -58
15 -73 27 -73 5 0 8 7 4 15 -3 10 1 15 13 15 14 0 17 -6 13 -25 -2 -14 -8 -28
-13 -31 -14 -8 -10 -34 5 -34 8 0 17 11 20 24 7 29 42 25 42 -5 0 -10 -5 -17
-11 -15 -5 2 -9 9 -8 15 2 6 -2 11 -7 11 -6 0 -10 -9 -10 -20 0 -12 7 -20 16
-20 10 0 14 -6 11 -14 -3 -8 3 -23 14 -35 l20 -21 -41 0 -40 0 0 -40 0 -40 45
0 c25 0 45 -4 45 -9 0 -16 -20 -23 -33 -12 -9 7 -16 5 -25 -9 -10 -16 -9 -18
2 -14 15 6 40 -29 29 -40 -3 -3 -1 -6 5 -6 7 0 12 4 12 9 0 14 59 41 66 30 9
-15 -5 -29 -29 -29 -20 0 -19 -2 7 -15 15 -8 35 -15 42 -15 8 0 14 -4 14 -10
0 -5 -7 -10 -16 -10 -24 0 -12 -34 13 -38 12 -2 27 -10 33 -18 7 -8 22 -14 34
-15 11 0 15 -3 8 -6 -6 -2 -9 -10 -5 -16 21 -33 9 -62 -45 -112 -20 -18 -33
-37 -29 -41 4 -4 27 13 51 39 41 43 46 45 76 37 17 -5 38 -6 46 -3 8 3 14 1
14 -5 0 -6 -6 -13 -12 -15 -8 -3 -6 -6 4 -6 11 -1 15 -6 12 -16 -10 -25 14
-17 46 16 16 18 30 27 30 20 0 -6 5 -11 10 -11 6 0 10 6 10 14 0 7 9 16 20 19
11 3 20 1 20 -4 0 -5 9 -9 20 -9 11 0 20 -4 20 -10 0 -5 12 -10 26 -10 14 0
23 4 19 10 -3 6 -15 10 -26 10 -10 0 -19 7 -19 15 0 8 9 15 20 15 11 0 20 -4
20 -10 0 -5 11 -10 25 -10 26 0 34 -15 13 -23 -9 -4 -8 -6 3 -6 8 -1 20 4 26
10 7 7 13 7 17 1 3 -6 35 -8 73 -5 53 3 65 2 53 -7 -12 -9 -9 -11 17 -6 36 6
57 -12 47 -39 -6 -14 -3 -16 12 -11 27 8 50 -39 26 -54 -15 -8 -15 -11 -2 -20
20 -13 90 -13 90 0 0 6 -5 10 -12 10 -6 0 -9 3 -5 6 3 4 0 13 -8 21 -18 18
-19 39 -2 50 6 4 48 8 92 8 44 0 72 -1 63 -3 -10 -2 -18 -8 -18 -13 0 -12 24
-11 37 2 13 13 56 2 48 -11 -3 -5 -32 -8 -65 -6 -54 4 -60 2 -75 -21 -22 -33
-12 -40 21 -14 28 22 69 28 79 11 3 -5 11 -7 18 -4 8 3 24 0 38 -5 l24 -10
-27 0 c-16 -1 -28 -6 -28 -12 0 -7 15 -10 39 -7 34 3 42 0 55 -23 9 -15 16
-34 16 -42 0 -9 5 -17 12 -19 8 -3 8 -12 1 -33 -13 -39 -31 -43 -36 -8 -3 22
-4 20 -6 -12 l-2 -40 -14 33 c-14 31 -33 47 -21 17 6 -17 -9 -21 -19 -4 -12
18 -12 84 -1 91 7 5 5 8 -4 8 -13 0 -13 1 0 10 12 8 9 10 -11 10 -23 0 -26 -3
-22 -27 4 -24 3 -25 -7 -10 -6 9 -20 17 -30 17 -31 0 -23 19 13 35 29 12 30
14 12 21 -11 4 -24 9 -30 12 -5 3 -7 2 -4 -2 7 -8 -42 -64 -53 -59 -3 2 -33
-1 -67 -5 -33 -5 -58 -5 -55 0 3 4 -9 8 -25 8 -17 0 -31 -4 -31 -10 0 -5 9
-10 20 -10 15 0 19 -6 16 -22 -1 -13 -9 -24 -17 -24 -8 -1 -20 -2 -26 -3 -7 0
-13 -12 -13 -26 0 -25 -25 -73 -44 -87 -5 -3 -11 -32 -13 -65 -7 -105 -16
-123 -41 -82 -11 17 -10 25 2 50 14 28 14 30 -2 27 -11 -3 -16 -12 -14 -28 2
-23 2 -23 -18 -5 -19 17 -19 19 -2 32 9 8 12 12 5 9 -6 -4 -14 -2 -18 4 -3 5
-2 10 4 10 6 0 8 7 5 15 -4 10 0 15 10 15 13 0 15 4 6 19 -5 11 -10 35 -10 53
-1 26 -3 30 -10 16 -7 -11 -6 -26 1 -44 7 -20 7 -30 0 -32 -6 -2 -11 -11 -11
-19 0 -9 -6 -13 -15 -10 -8 4 -17 2 -20 -3 -4 -6 -1 -10 5 -10 7 0 10 -5 8
-12 -3 -8 -22 -11 -54 -10 -72 4 -28 -21 50 -27 4 -1 6 -7 3 -15 -4 -9 0 -12
12 -9 10 3 21 -2 24 -9 3 -10 -2 -14 -17 -14 -33 1 -35 -41 -2 -50 14 -3 26
-11 26 -18 0 -6 9 -29 19 -49 21 -40 29 -173 11 -162 -6 4 -10 15 -10 26 0 17
-3 18 -21 9 -23 -13 -22 -14 -38 18 -9 18 -10 27 -1 37 14 17 37 10 44 -13 2
-10 4 -6 3 8 -3 32 -54 80 -87 80 -20 0 -22 2 -10 10 12 8 11 10 -8 10 -13 0
-37 7 -55 15 -29 14 -30 14 -13 0 11 -8 24 -15 29 -15 4 0 5 -5 2 -11 -10 -15
26 -39 50 -33 19 5 19 4 -2 -14 l-21 -19 50 -67 c27 -38 52 -78 55 -90 12 -54
11 -67 -10 -81 -15 -10 -17 -15 -7 -15 10 0 11 -3 4 -8 -6 -4 -14 -14 -17 -22
-4 -11 -7 -10 -12 7 -4 12 -13 19 -20 17 -7 -3 -16 3 -19 13 -4 10 -2 19 3 21
6 2 11 13 12 25 0 21 1 21 9 2 5 -11 9 -14 9 -7 1 20 -18 52 -32 52 -7 0 -18
10 -26 21 -10 18 -15 19 -22 8 -7 -12 -9 -12 -9 0 0 8 -3 11 -6 8 -4 -4 7 -20
25 -36 17 -16 31 -36 31 -45 0 -21 -6 -20 -32 4 -12 11 -24 17 -27 14 -3 -4 0
-9 7 -11 6 -3 12 -11 12 -19 0 -9 -4 -12 -10 -9 -5 3 -10 1 -10 -5 0 -21 -35
-5 -58 28 -12 17 -29 32 -37 32 -8 0 -19 8 -24 18 -9 15 -10 14 -11 -6 0 -13
12 -39 26 -58 15 -19 21 -34 15 -34 -6 0 -17 13 -26 29 -18 37 -40 52 -31 23
4 -11 3 -23 -2 -26 -15 -9 -52 33 -52 58 0 13 -7 29 -15 36 -18 15 -18 10 -5
-24 7 -20 6 -24 -5 -19 -8 3 -15 9 -15 13 0 4 -9 10 -20 13 -11 3 -24 17 -30
32 -13 33 -19 30 -22 -13 -3 -36 -14 -42 -23 -12 -9 27 -25 26 -18 -1 4 -12
14 -24 25 -26 10 -3 18 -10 18 -15 0 -6 -7 -7 -16 -4 -9 3 -19 6 -23 6 -5 0
-20 11 -35 25 -14 13 -26 19 -26 13 0 -6 -11 1 -24 15 -19 20 -25 23 -30 12
-3 -8 -10 -15 -15 -15 -6 0 -8 7 -5 15 4 9 0 15 -10 15 -9 0 -16 6 -16 13 0 9
-2 9 -9 -1 -7 -11 -9 -11 -14 2 -4 9 -24 24 -47 33 -22 10 -40 23 -40 29 0 6
-11 16 -25 22 -34 15 -68 16 -59 1 4 -7 -6 -3 -22 8 -16 11 -45 30 -65 43 -20
13 -36 28 -36 34 1 22 -16 76 -23 76 -5 0 -6 10 -2 22 4 16 2 20 -10 16 -18
-7 -52 46 -44 68 3 8 0 25 -8 37 -8 12 -17 39 -20 60 -5 28 -12 37 -26 37 -16
0 -20 7 -20 35 0 29 -5 37 -26 45 -14 6 -28 18 -31 28 -2 10 -20 26 -40 37
-25 13 -38 28 -40 45 -2 14 -4 31 -5 38 -1 7 -21 34 -45 59 -38 39 -43 50 -38
74 4 18 2 29 -4 29 -6 0 -11 6 -11 13 0 7 -12 29 -26 50 -19 29 -26 53 -28
102 -2 36 -9 71 -15 79 -18 22 -28 166 -11 166 10 0 10 3 0 15 -10 12 -9 27 5
77 9 34 18 72 20 84 2 25 89 200 112 226 9 11 11 18 4 23 -6 3 -11 1 -11 -4 0
-6 -9 -11 -21 -11 -26 0 -53 -26 -43 -42 4 -7 4 -10 -1 -6 -12 11 -35 -11 -35
-32 0 -13 -6 -17 -19 -13 -11 3 -21 -2 -25 -13 -8 -22 2 -33 14 -14 5 8 12 11
16 7 4 -4 -2 -15 -14 -25 -11 -10 -24 -30 -27 -45 -6 -21 -12 -26 -25 -22 -25
8 -37 -41 -15 -64 8 -10 15 -24 14 -32 0 -8 -4 -6 -8 6 -8 19 -8 19 -20 -3 -6
-12 -13 -36 -14 -52 -1 -17 -6 -30 -11 -30 -5 0 -2 -7 5 -16 11 -14 11 -18 -2
-28 -21 -16 -25 -94 -5 -102 9 -3 16 -15 16 -26 0 -19 -1 -19 -24 -5 -21 14
-26 14 -45 1 -11 -8 -21 -22 -21 -30 0 -10 5 -9 20 6 11 11 25 20 32 20 9 0 9
-3 1 -11 -8 -8 -8 -20 -2 -36 6 -16 5 -22 -1 -18 -6 3 -10 1 -10 -4 0 -6 5
-11 11 -11 5 0 7 -4 4 -10 -3 -6 1 -7 9 -4 11 4 14 14 10 33 -4 20 -3 23 5 11
7 -10 11 -11 11 -2 0 18 50 15 57 -4 3 -9 -1 -31 -10 -49 -12 -25 -21 -32 -36
-28 -17 4 -19 0 -16 -31 4 -41 13 -59 25 -51 5 3 19 1 31 -5 15 -9 19 -18 15
-35 -3 -13 -1 -27 4 -30 6 -4 18 -23 27 -43 15 -34 19 -50 25 -104 1 -10 6
-18 10 -18 4 0 7 -3 6 -7 -4 -14 26 -53 40 -53 8 0 11 -6 8 -12 -3 -7 -9 -21
-12 -30 -7 -20 -20 -23 -29 -8 -4 6 -10 8 -15 5 -4 -3 -25 12 -47 32 -21 21
-41 37 -45 35 -5 -1 -8 3 -8 9 0 6 -20 29 -45 52 -25 24 -45 48 -45 54 0 7
-10 19 -22 27 -12 9 -18 16 -13 16 5 0 -1 9 -13 20 -12 12 -22 33 -22 48 0 15
-6 36 -14 47 -7 11 -17 31 -21 45 -4 14 -13 32 -20 40 -7 8 -25 55 -40 103
-24 74 -26 93 -18 122 8 26 8 35 0 35 -7 0 -4 7 5 14 10 7 15 15 12 18 -3 4
29 30 70 59 70 48 90 69 67 69 -34 0 -128 -26 -203 -55 -98 -39 -129 -56 -170
-93 -23 -21 -33 -24 -72 -19 -37 5 -44 4 -40 -8 4 -9 -3 -16 -23 -21 -15 -4
-46 -16 -67 -27 -31 -15 -44 -17 -58 -8 -25 15 -28 14 -28 -12 0 -19 -11 -28
-54 -46 -29 -12 -71 -37 -92 -55 -61 -52 -128 -80 -274 -116 -41 -10 -104 -32
-140 -48 -36 -16 -87 -34 -113 -41 -26 -6 -98 -36 -160 -66 -118 -57 -175 -74
-244 -75 -23 0 -64 -8 -90 -19 -26 -10 -73 -22 -103 -25 -67 -9 -165 -39 -233
-71 -28 -14 -61 -25 -74 -25 -13 0 -31 -4 -41 -9 -9 -5 -46 -16 -82 -25 -301
-77 -377 -103 -530 -181 -14 -6 -59 -24 -100 -39 -157 -57 -255 -107 -403
-202 -133 -85 -234 -141 -452 -248 -162 -79 -208 -99 -265 -111 -16 -3 -55
-41 -109 -106 -47 -56 -107 -119 -135 -140 -28 -21 -112 -93 -186 -159 -74
-66 -171 -151 -215 -188 -44 -38 -151 -142 -237 -231 l-158 -162 0 -3594 0
-3595 536 0 c477 1 535 2 523 16 -10 12 -14 12 -21 2 -6 -9 -7 -5 -3 10 4 15
1 24 -9 28 -9 3 -14 10 -11 14 3 5 -2 15 -11 22 -48 39 -76 68 -66 68 6 0 -5
15 -23 34 -19 18 -35 39 -35 45 0 7 -20 33 -45 58 -40 40 -63 85 -34 67 8 -4
8 0 0 15 -7 11 -17 21 -23 21 -6 0 -9 3 -6 6 3 3 -9 20 -27 37 -18 18 -40 49
-49 70 -9 22 -27 48 -41 59 -14 11 -25 25 -24 31 0 8 2 8 6 0 2 -7 10 -13 16
-13 7 0 -1 11 -16 25 -32 30 -34 39 -8 32 13 -3 6 8 -20 35 -21 22 -46 41 -56
43 -11 1 -17 10 -16 23 1 11 -8 31 -21 45 -17 18 -21 28 -13 36 8 8 7 11 -4
11 -9 0 -21 11 -28 24 -7 13 -35 44 -61 70 -26 25 -54 60 -61 78 -12 29 -10
36 25 105 21 40 48 88 61 107 12 18 35 55 51 82 15 27 45 71 66 97 21 27 38
58 38 70 0 12 22 42 53 71 29 29 74 88 101 136 27 47 65 100 85 119 73 67 195
162 215 166 63 13 204 35 291 45 124 15 231 48 359 111 l98 49 37 -29 c21 -17
50 -57 70 -97 19 -38 47 -82 63 -99 126 -133 126 -133 152 -261 60 -284 151
-650 236 -944 12 -41 39 -109 60 -150 21 -41 48 -106 60 -143 25 -74 24 -137
-3 -349 l-13 -98 4886 0 4886 0 -17 115 c-10 63 -20 143 -23 178 -3 34 -10
105 -16 157 -6 52 -24 250 -41 440 -16 190 -34 374 -39 410 -29 211 -70 734
-72 930 -1 100 1 109 36 195 20 50 48 113 61 140 13 28 29 68 36 90 20 67 140
305 172 342 17 19 48 43 70 55 23 11 47 26 54 33 14 15 47 9 100 -19 17 -8 66
-25 110 -37 96 -26 119 -38 141 -71 9 -14 41 -61 71 -104 95 -137 127 -187
176 -274 27 -47 59 -97 73 -111 14 -15 51 -78 84 -140 32 -62 65 -120 72 -129
8 -8 33 -53 57 -99 24 -46 57 -97 72 -112 29 -29 109 -59 158 -59 26 0 132 21
187 36 23 7 23 6 17 -54 -3 -33 -8 -71 -11 -84 -3 -13 -10 -41 -15 -63 -5 -22
-12 -58 -16 -80 -3 -22 -9 -47 -14 -56 -7 -14 -12 -49 -24 -163 -2 -27 -9 -54
-14 -60 -4 -6 -11 -28 -15 -48 -6 -34 -38 -142 -53 -178 -3 -8 -5 -19 -4 -24
1 -4 -2 -13 -7 -20 -13 -15 -42 -119 -42 -147 0 -27 -36 -106 -61 -134 -10
-11 -20 -33 -24 -50 l-7 -30 21 25 c11 14 21 19 21 13 0 -7 -13 -24 -28 -38
-15 -13 -28 -35 -30 -49 -1 -13 -15 -50 -32 -82 -22 -43 -27 -60 -17 -66 8 -5
7 -8 -6 -8 -10 0 -15 -5 -12 -10 3 -6 1 -10 -4 -10 -6 0 -11 -9 -11 -19 0 -11
-4 -22 -10 -26 -5 -3 -17 -31 -27 -61 -15 -47 -15 -57 -3 -64 8 -5 11 -13 6
-17 -5 -4 -11 -2 -13 5 -9 25 -23 11 -23 -23 0 -19 -13 -58 -29 -88 -36 -66
-61 -138 -66 -190 -2 -21 -9 -45 -16 -53 -10 -12 73 -14 605 -14 l616 0 0
3313 0 3312 -42 45 c-23 25 -111 119 -196 209 -91 98 -177 199 -209 250 -31
47 -70 109 -88 136 -47 74 -228 298 -362 448 -189 212 -424 441 -618 601 -225
186 -285 243 -341 328 -54 81 -103 124 -164 142 -25 8 -90 32 -145 55 -55 22
-107 42 -115 45 -14 5 -34 17 -139 81 -19 11 -45 30 -60 41 -42 34 -164 92
-238 113 -37 10 -94 33 -126 50 -31 16 -74 33 -95 36 -67 11 -206 47 -232 60
-47 24 -178 45 -287 45 -59 0 -151 5 -203 10 -72 8 -330 27 -392 30 -3 0 -26
18 -49 40 -24 23 -56 42 -73 44 -17 3 -67 10 -111 16 -44 6 -116 20 -161 30
-44 10 -116 22 -160 26 -44 4 -95 15 -117 26 -56 28 -167 66 -214 74 -24 4
-67 24 -105 50 -167 115 -204 138 -276 171 -46 21 -103 58 -142 92 -36 31 -76
65 -90 74 -33 23 -66 22 -73 -3 -3 -11 -13 -20 -22 -20 -12 0 -15 5 -10 20 4
13 -3 32 -21 56 -23 30 -29 33 -37 19 -13 -24 -1 -55 38 -99 36 -39 44 -53 24
-40 -6 4 2 -18 19 -49 30 -54 50 -117 79 -247 19 -87 12 -403 -9 -428 -8 -9
-20 -30 -27 -47 -6 -16 -31 -50 -56 -75 -24 -25 -44 -50 -45 -56 0 -5 -13 -23
-30 -39 -16 -16 -30 -34 -30 -41 0 -7 -12 -26 -26 -41 -39 -43 -48 -56 -64
-88 -17 -35 -44 -65 -60 -65 -5 0 -10 -9 -10 -21 0 -11 -5 -17 -10 -14 -6 3
-13 -2 -17 -12 -15 -39 -76 -114 -89 -109 -8 3 -14 1 -14 -5 0 -16 -72 -89
-81 -83 -5 3 -9 0 -9 -6 0 -8 -6 -8 -21 1 -18 9 -20 8 -15 -8 7 -22 -26 -59
-43 -48 -6 3 -11 -1 -11 -10 0 -24 -23 -13 -30 14 -9 40 1 131 15 131 7 0 15
7 19 15 3 8 1 15 -4 15 -6 0 -10 9 -10 20 0 30 -18 24 -25 -9 -5 -23 -17 -35
-51 -51 -44 -22 -57 -40 -29 -40 8 0 15 5 15 10 0 6 11 10 25 10 18 0 25 -5
25 -19 0 -30 -11 -51 -26 -51 -8 0 -14 -8 -14 -17 0 -15 2 -16 10 -3 5 8 10
11 10 7 0 -5 -9 -21 -20 -37 -11 -15 -17 -30 -13 -34 3 -3 1 -6 -6 -6 -7 0
-21 -10 -32 -22 -16 -20 -20 -21 -29 -8 -25 38 10 133 42 114 10 -5 10 -4 2 5
-9 10 -19 8 -48 -7 -40 -22 -87 -67 -78 -76 3 -3 2 -6 -2 -6 -3 0 -11 10 -16
23 -7 17 -9 18 -9 5 -1 -10 -8 -18 -16 -18 -9 0 -15 -9 -15 -22 -1 -22 -1 -22
-12 -3 -20 34 -36 47 -41 32 -3 -6 -6 -1 -6 12 -1 17 3 22 14 17 11 -4 19 3
25 20 13 33 13 34 -5 28 -11 -4 -13 -13 -9 -28 5 -17 4 -19 -7 -9 -9 9 -10 19
-3 35 12 28 7 58 -10 58 -8 0 -12 -10 -11 -25 3 -18 -4 -27 -25 -37 -21 -9
-26 -16 -19 -24 7 -8 6 -15 -2 -19 -8 -6 -8 -9 0 -15 15 -9 4 -37 -15 -37 -9
0 -13 6 -9 15 4 12 2 12 -8 4 -19 -16 -28 -4 -20 26 4 17 2 23 -6 18 -6 -4
-11 -2 -11 5 0 8 -7 5 -20 -6 -19 -17 -19 -17 -13 34 4 35 2 51 -6 51 -6 0
-11 -6 -11 -14 0 -8 -6 -16 -14 -19 -8 -3 -13 1 -12 11 1 20 13 34 41 50 17 9
14 10 -20 9 l-40 -2 1 38 c1 20 -2 37 -7 37 -5 0 -9 7 -9 16 0 8 -4 12 -10 9
-5 -3 -10 0 -10 8 0 8 -7 20 -15 27 -8 7 -12 16 -9 21 3 5 0 9 -5 9 -17 0 -13
-12 14 -53 17 -24 21 -37 13 -38 -8 0 -7 -3 3 -7 14 -6 14 -9 -2 -26 -16 -16
-19 -17 -19 -4 0 9 -5 18 -12 20 -8 3 -12 31 -12 84 1 43 -1 71 -3 62 -8 -35
-22 -17 -19 25 1 23 -4 62 -11 87 l-13 45 6 -40 c3 -29 2 -36 -5 -25 -9 12
-11 11 -11 -7 0 -12 5 -23 11 -25 19 -6 0 -70 -19 -66 -10 2 -17 10 -18 18 -1
29 -26 105 -38 120 -32 38 -25 58 8 24 30 -29 16 6 -14 38 -26 27 -28 33 -15
40 8 5 20 6 25 3 6 -3 10 -1 10 4 0 6 -13 11 -29 11 -17 0 -33 5 -36 10 -4 6
-10 8 -15 5 -16 -10 -59 6 -54 20 3 8 12 11 19 9 7 -3 16 -1 20 5 7 12 -17 41
-35 41 -6 0 -9 4 -5 10 3 5 12 7 20 3 9 -3 22 0 30 7 8 6 18 9 24 6 5 -3 22 1
37 9 15 8 33 11 38 6 16 -12 61 3 62 19 2 29 4 31 24 20 28 -15 60 3 53 30 -3
11 -1 20 5 20 11 0 23 36 14 44 -3 3 -10 2 -16 -4 -8 -6 -12 -2 -14 13 -1 17
6 26 28 34 16 6 28 7 27 3 -1 -4 3 -8 8 -9 6 -1 10 9 10 22 0 15 -6 22 -18 21
-10 -1 -16 3 -14 10 2 6 11 10 20 8 11 -2 15 2 11 13 -4 9 -1 15 9 15 8 0 18
6 20 13 3 7 6 6 6 -5 1 -9 -3 -19 -8 -23 -10 -5 -7 -43 4 -53 4 -5 5 -1 5 23
0 5 31 42 75 90 27 29 63 38 68 16 3 -9 5 -2 6 16 0 17 5 34 10 38 6 3 8 -6 5
-20 -5 -30 6 -33 24 -4 10 15 21 20 44 17 21 -2 33 2 35 12 4 13 3 13 -6 0 -6
-8 -11 -10 -11 -5 0 13 21 35 33 35 4 0 5 -4 2 -10 -3 -5 1 -10 9 -10 9 0 16
5 16 11 0 20 20 -3 21 -24 0 -12 3 -16 6 -9 3 7 0 26 -6 42 -6 20 -7 30 0 30
6 0 8 4 5 9 -3 4 13 28 36 52 32 34 40 39 35 22 -3 -13 -1 -26 4 -29 5 -3 9 4
9 15 0 11 17 37 39 58 21 22 46 51 56 66 14 22 20 25 31 16 9 -7 14 -8 14 -1
0 6 -6 12 -12 15 -9 3 -6 11 9 25 12 12 30 35 39 52 10 16 22 30 27 30 4 0 6
4 3 9 -3 5 3 11 14 14 11 3 24 16 29 29 11 26 13 21 13 -42 0 -38 2 -34 10 25
12 78 30 108 48 76 14 -28 13 -36 -5 -21 -20 16 -19 6 3 -33 l17 -32 3 38 c2
25 -2 45 -12 56 -9 10 -16 23 -16 30 0 23 32 80 43 78 7 -1 11 6 9 16 -2 9 2
17 8 17 6 0 20 22 32 49 11 29 28 51 39 54 13 3 17 11 13 21 -4 9 3 38 14 64
12 27 19 58 16 69 -4 13 0 22 10 26 9 4 18 24 22 46 7 41 47 91 58 72 4 -5 -3
-16 -14 -24 -18 -12 -18 -15 -5 -20 9 -4 15 -1 15 8 0 8 4 15 9 15 5 0 7 18 4
40 -5 33 -3 40 11 40 9 0 16 6 16 14 0 8 3 23 6 33 5 15 4 15 -5 3 -9 -13 -11
-13 -11 3 0 9 4 17 9 17 5 0 9 12 9 26 0 15 5 30 11 34 7 4 11 11 10 16 -4 21
2 34 16 34 8 0 15 6 15 14 0 8 4 16 8 18 4 2 20 43 35 93 15 49 31 92 35 95 4
3 8 23 9 44 2 22 8 43 14 47 6 4 8 16 4 28 -10 32 -8 113 3 120 6 4 7 26 2 56
-4 27 -5 55 -3 62 3 7 -2 16 -11 19 -9 3 -16 17 -16 31 0 13 4 21 10 18 13 -8
12 -2 -1 69 -6 32 -7 65 -4 74 7 16 7 40 6 158 -1 27 -5 43 -11 39 -5 -3 -10
1 -10 9 0 9 3 16 8 16 4 0 5 49 4 108 -3 89 -1 112 12 125 17 17 22 32 7 23
-10 -6 -31 60 -31 97 0 14 -5 29 -10 32 -7 4 -7 13 0 26 10 17 7 22 -10 21 -3
0 -5 25 -4 56 0 35 -5 68 -15 86 -11 19 -12 30 -5 33 12 4 7 53 -6 53 -9 0
-20 -60 -20 -107 0 -25 -4 -31 -15 -27 -19 8 -19 -7 0 -32 16 -22 20 -58 5
-49 -13 8 -13 -5 3 -35 6 -14 12 -58 12 -98 0 -60 -4 -75 -18 -84 -17 -9 -18
-11 -1 -29 13 -15 14 -22 5 -33 -9 -11 -10 -25 -2 -50 5 -21 6 -34 0 -31 -12
8 -11 -2 2 -27 8 -16 8 -22 -2 -29 -11 -6 -10 -12 4 -27 19 -21 23 -47 5 -36
-11 7 -9 -10 7 -48 5 -13 2 -18 -9 -18 -9 0 -16 8 -16 18 0 9 -9 31 -20 47
-24 36 -25 30 -5 -20 9 -20 15 -44 14 -53 -1 -10 -1 -32 0 -51 1 -25 5 -32 16
-27 12 4 15 -4 15 -47 l0 -52 -19 24 -18 23 5 -31 c2 -18 0 -31 -7 -31 -6 0
-8 -7 -5 -15 5 -12 10 -10 25 8 18 22 18 22 20 -38 l2 -60 7 45 c4 24 5 54 2
65 -3 11 -1 16 4 12 9 -9 11 -14 13 -48 1 -13 5 -18 14 -12 6 4 4 -5 -5 -20
-23 -35 -23 -40 5 -32 l22 6 -23 -18 c-15 -12 -21 -25 -17 -35 4 -9 2 -25 -4
-35 -11 -17 -11 -17 -10 2 1 11 1 29 0 40 -1 16 -3 17 -10 6 -7 -11 -11 -6
-14 20 -4 32 -4 32 -5 -8 -1 -23 -5 -50 -8 -60 -5 -15 -4 -16 6 -3 9 12 11 8
6 -19 -3 -18 -6 -42 -6 -52 0 -11 -6 -19 -13 -19 -15 0 -39 82 -31 107 4 14 4
15 -4 4 -12 -17 -18 -7 -27 47 -4 24 -3 42 2 42 6 0 15 17 21 38 l11 37 -18
-24 -18 -24 -7 29 c-12 48 -49 62 -40 15 3 -16 1 -32 -5 -35 -7 -5 -7 -15 -1
-32 8 -19 6 -26 -5 -30 -11 -4 -13 -14 -8 -33 5 -22 4 -24 -9 -14 -11 10 -17
10 -26 1 -9 -9 -12 -8 -12 5 0 9 -5 17 -11 17 -9 0 -7 -16 8 -57 3 -7 -3 -10
-16 -6 -12 3 -21 9 -21 14 0 5 -5 9 -11 9 -6 0 -8 -8 -4 -20 5 -15 2 -18 -13
-15 -15 3 -19 -1 -15 -16 3 -11 -1 -21 -10 -25 -9 -3 -13 -12 -10 -20 3 -8 1
-14 -5 -14 -14 0 -21 -48 -8 -53 6 -2 8 -8 4 -12 -12 -13 -28 5 -28 32 0 19
-4 24 -16 19 -9 -3 -22 -6 -30 -6 -18 0 -18 -25 1 -43 12 -12 12 -16 1 -20 -7
-3 -19 0 -25 6 -16 16 -23 3 -13 -24 9 -25 -3 -89 -16 -89 -15 0 -33 18 -30
30 2 7 -4 14 -12 15 -34 6 -45 10 -51 18 -11 15 -37 -4 -32 -24 4 -15 8 -17
19 -8 11 9 14 8 14 -4 0 -8 -6 -18 -12 -20 -8 -3 -5 -6 5 -6 11 -1 21 8 24 20
4 16 8 17 14 7 5 -7 6 -22 3 -33 -4 -15 -3 -16 4 -6 7 9 12 10 16 2 4 -6 4
-12 -1 -12 -47 -7 -63 -6 -63 2 0 5 -5 9 -11 9 -18 0 -41 29 -33 42 11 17 12
48 2 42 -4 -3 -12 6 -18 20 -5 14 -14 26 -20 26 -15 0 -12 -11 10 -45 29 -44
24 -51 -15 -21 -19 15 -40 24 -45 21 -6 -3 -10 4 -10 16 0 12 -8 28 -17 36
-13 10 -15 16 -5 19 17 8 15 24 -3 24 -9 0 -14 8 -12 22 1 15 -4 23 -18 26
-20 4 -65 45 -65 59 0 5 -9 14 -20 21 -11 7 -20 24 -21 40 -1 24 -2 24 -9 -8
-5 -19 -6 -38 -4 -42 2 -3 0 -9 -6 -13 -5 -3 -10 -1 -10 4 0 6 -4 11 -9 11 -5
0 -7 -9 -4 -20 4 -14 0 -20 -11 -20 -9 0 -16 4 -16 9 0 17 -59 9 -63 -8 -4
-14 -5 -13 -6 1 -1 21 -53 38 -59 20 -5 -15 -39 -16 -47 -2 -4 6 -12 10 -18 9
-29 -3 -37 3 -37 26 0 18 -5 25 -19 25 -11 0 -22 4 -25 9 -3 5 -14 11 -25 14
-14 3 -18 1 -14 -9 3 -8 11 -14 19 -14 8 0 14 -4 14 -10 0 -13 -17 -13 -25 0
-3 5 -12 7 -20 3 -9 -3 -15 1 -15 8 0 7 -7 3 -16 -9 -8 -12 -19 -22 -25 -22
-12 0 -6 35 11 55 12 15 11 16 -13 10 -35 -9 -34 -4 8 41 19 20 33 40 30 43
-4 3 -10 -1 -15 -9 -8 -12 -13 -13 -30 -2 -28 17 -31 15 -18 -13 10 -22 9 -29
-6 -43 -18 -16 -18 -16 -12 11 3 15 2 27 -3 27 -5 0 -11 9 -14 20 -5 18 -1 22
20 19 4 -1 13 12 20 28 7 15 12 21 13 13 1 -18 39 28 40 48 0 6 5 12 11 12 6
0 9 -7 5 -15 -7 -20 4 -19 19 2 11 14 13 13 19 -12 8 -30 32 -54 55 -55 11 0
11 3 1 15 -9 11 -9 15 -1 15 7 0 30 -19 52 -42 30 -32 42 -39 51 -30 18 18 30
15 24 -6 -5 -14 -1 -17 20 -17 15 1 33 10 40 20 11 15 14 16 14 3 0 -10 9 -14
26 -14 28 2 44 21 43 51 0 11 -3 14 -6 8 -9 -25 -21 -13 -20 21 1 23 5 32 14
29 7 -3 13 -1 13 5 0 6 -6 13 -12 15 -8 3 -5 6 6 6 15 1 16 4 6 16 -8 10 -9
15 -2 15 6 0 9 7 6 15 -4 8 -10 15 -15 15 -5 0 -9 -7 -9 -15 0 -8 -5 -15 -11
-15 -5 0 -8 4 -4 9 3 6 -3 15 -12 21 -17 11 -17 11 0 6 10 -3 24 0 30 7 9 9 6
18 -15 38 -15 15 -29 24 -32 21 -4 -3 -6 4 -6 16 0 14 -6 22 -17 22 -13 0 -14
3 -5 12 17 17 15 28 -5 29 -16 0 -16 1 1 8 18 7 18 8 3 14 -9 3 -17 13 -17 22
0 8 -4 15 -10 15 -5 0 -10 -7 -10 -15 0 -30 -19 -14 -26 23 -7 35 -8 35 -15
12 -5 -18 -7 -20 -8 -6 -1 14 -4 16 -14 7 -11 -8 -20 -4 -40 19 -15 17 -36 30
-47 30 -11 0 -20 4 -20 10 0 5 -11 12 -25 16 -14 3 -25 10 -25 14 0 4 -13 13
-30 18 -25 9 -31 8 -39 -6 -21 -43 -23 -110 -1 -97 11 7 1 -184 -11 -206 -7
-15 -16 -18 -37 -13 -15 4 -29 10 -32 14 -9 13 -123 23 -116 11 4 -6 0 -11 -8
-11 -8 0 -21 -6 -28 -13 -34 -35 -80 -46 -108 -27 -13 9 -12 13 5 26 14 11 15
15 5 14 -31 -4 -60 0 -60 10 0 5 7 7 15 4 8 -4 15 -1 15 5 0 6 -7 12 -15 12
-30 3 -34 4 -46 16 -8 8 -16 9 -29 1 -14 -9 -22 -8 -35 5 -9 9 -21 17 -26 17
-5 0 -9 7 -9 15 0 18 -12 19 -28 3 -9 -9 -8 -16 4 -29 9 -10 14 -24 11 -31 -4
-8 -6 -7 -6 5 -1 21 -14 22 -31 2 -13 -15 -80 -18 -80 -4 0 4 -12 10 -26 13
-21 6 -24 9 -14 21 18 21 -2 19 -45 -5 -29 -16 -39 -18 -49 -8 -15 16 -14 82
2 121 7 16 12 46 12 68 0 21 5 39 10 39 6 0 10 11 10 25 0 34 20 32 21 -2 l1
-28 8 25 8 25 1 -27 c1 -16 7 -28 14 -28 7 0 4 -7 -7 -15 -16 -12 -16 -15 -4
-15 10 0 15 -10 16 -28 1 -29 -17 -36 -46 -19 -8 5 -10 3 -6 -6 3 -8 -2 -17
-10 -20 -23 -9 -20 -47 3 -47 10 0 24 -7 31 -15 12 -15 64 -11 87 7 7 5 14 5
17 -1 4 -6 17 -5 36 2 24 9 29 16 24 32 -4 11 -14 25 -22 31 -10 7 -13 19 -9
36 6 21 3 27 -14 31 -14 4 -20 11 -16 21 3 8 0 17 -7 19 -10 4 -12 -1 -9 -14
3 -10 0 -26 -7 -34 -7 -9 -10 -18 -6 -22 3 -3 6 -1 6 6 0 7 4 10 10 6 5 -3 1
-14 -10 -25 -25 -25 -32 -25 -28 -2 1 9 -1 23 -5 30 -5 7 -2 14 8 18 14 6 14
8 -2 20 -13 9 -14 13 -4 14 10 0 11 3 2 14 -9 10 -8 15 3 19 8 3 16 1 19 -6 2
-6 6 -4 10 6 4 10 2 16 -5 14 -6 -1 -13 4 -15 11 -3 8 5 12 24 13 l28 0 -24
10 c-19 7 -22 12 -13 21 13 13 16 32 4 25 -4 -3 -8 28 -10 69 -3 87 -12 116
-47 148 -18 17 -22 25 -13 34 7 7 18 12 25 12 17 0 16 18 -1 52 -13 25 -13 30
2 45 16 15 15 16 -11 11 -31 -6 -38 11 -8 19 19 5 19 6 -5 29 -13 14 -24 30
-24 37 0 8 4 6 11 -3 9 -12 10 -12 5 3 -3 10 -6 21 -6 23 0 2 -7 4 -15 4 -8 0
-15 -9 -15 -19 0 -27 -16 -35 -26 -13 -10 23 -12 62 -2 62 4 0 8 -4 8 -10 0
-5 11 -9 25 -8 29 3 31 6 10 22 -19 15 -1 100 24 119 10 6 21 22 25 34 4 14
12 20 22 16 10 -4 14 3 14 27 0 18 4 29 10 25 6 -3 10 0 10 7 0 9 3 9 10 -2 7
-11 10 -12 10 -2 0 9 7 11 21 7 13 -4 27 -1 39 10 19 17 46 12 35 -6 -4 -5 1
-9 9 -9 9 0 15 5 13 11 -3 16 39 21 83 9 33 -9 41 -17 56 -56 11 -29 27 -50
45 -60 36 -18 59 -18 59 1 0 29 31 29 56 0 27 -31 27 -34 15 -54 -5 -8 -19
-12 -35 -9 -33 7 -34 -9 -1 -74 14 -27 25 -56 25 -64 0 -8 7 -14 15 -14 8 0
18 -12 21 -26 5 -19 11 -24 26 -21 13 4 31 -8 61 -39 23 -24 50 -44 61 -44 13
0 17 -5 13 -20 -3 -11 0 -20 6 -20 7 0 23 -16 37 -34 14 -19 30 -32 35 -29 6
2 1 -3 -9 -11 -17 -14 -18 -16 -3 -16 9 0 17 -7 17 -15 0 -9 9 -15 24 -15 31
0 42 -16 20 -28 -11 -6 -15 -16 -11 -26 4 -10 11 -15 16 -11 6 3 8 12 5 19 -3
9 2 13 17 12 12 0 24 -7 27 -14 2 -7 -2 -11 -8 -10 -7 2 -15 -3 -18 -11 -3
-10 0 -12 13 -7 14 5 17 2 13 -19 -3 -14 -1 -28 4 -31 4 -3 6 -10 3 -15 -4 -5
1 -9 9 -9 9 0 15 3 15 8 -4 24 3 42 16 42 8 0 15 5 15 10 0 6 -8 10 -17 10
-16 0 -10 14 8 16 5 1 14 2 19 3 6 0 10 8 10 16 0 8 6 15 13 15 8 0 7 4 -3 11
-12 9 -12 10 3 5 10 -3 23 -6 28 -6 5 0 9 -4 9 -10 0 -5 -6 -7 -14 -4 -17 7
-40 -31 -30 -48 4 -7 3 -8 -4 -4 -7 4 -12 1 -12 -8 0 -8 -6 -17 -12 -19 -7 -3
-4 -6 7 -6 14 -1 24 9 32 29 12 33 33 40 34 13 0 -14 2 -13 9 5 11 25 62 50
68 33 2 -6 8 -11 14 -11 6 0 7 7 4 16 -3 8 -2 12 4 9 6 -3 10 2 11 12 1 13 3
11 9 -7 8 -24 8 -25 9 -2 1 13 11 33 22 45 17 17 21 18 16 5 -8 -22 9 -24 17
-2 3 9 13 14 21 10 18 -6 41 29 25 39 -5 3 -10 2 -10 -3 0 -6 -7 -13 -16 -16
-13 -5 -15 -2 -11 14 5 20 -7 28 -18 10 -9 -15 -35 0 -35 21 0 10 8 22 18 28
16 9 16 11 -3 25 -12 10 -15 15 -7 16 7 0 20 7 29 16 14 14 14 16 -7 21 -16 4
-18 8 -8 14 8 6 9 12 3 17 -21 15 -16 42 11 52 21 8 25 15 20 34 -4 16 0 30 9
40 17 16 21 41 5 31 -5 -3 -12 6 -16 20 -4 16 -12 24 -23 23 -9 -2 -15 3 -13
11 2 8 -3 18 -10 22 -7 4 -9 11 -5 15 3 4 13 1 21 -5 8 -7 25 -11 38 -8 21 3
20 5 -10 16 -18 7 -37 21 -42 30 -10 20 3 47 18 37 6 -3 14 -1 17 5 4 5 13 8
21 5 8 -3 14 -1 14 3 0 5 14 14 30 20 27 9 30 8 30 -10 0 -16 -4 -19 -22 -14
-17 6 -20 4 -15 -10 4 -9 7 -20 7 -24 0 -4 9 -19 21 -32 17 -19 22 -21 29 -9
6 8 10 19 10 23 0 5 7 15 15 24 14 14 15 13 9 -12 -7 -27 -6 -28 22 -21 16 4
39 8 52 9 24 2 29 12 10 20 -13 6 41 11 77 8 14 -1 16 1 8 7 -9 6 -8 12 7 25
24 20 27 57 5 57 -8 0 -18 0 -22 1 -16 1 -22 27 -14 56 5 17 5 37 -1 46 -7 13
-5 17 7 17 8 0 15 -7 15 -15 0 -18 -1 -18 38 -4 18 6 29 15 26 20 -3 6 0 17 8
26 7 9 13 28 14 43 1 25 -2 27 -29 26 -17 -1 -32 -7 -35 -14 -2 -6 -11 -12
-20 -12 -15 0 -15 2 -2 10 8 5 11 10 5 10 -5 0 -3 5 5 11 11 8 7 9 -18 5 -19
-3 -50 1 -75 10 -23 9 -49 17 -57 18 -9 1 -21 5 -28 10 -8 4 -12 1 -12 -9 0
-9 4 -14 9 -11 4 3 16 -3 26 -14 15 -17 15 -20 3 -20 -8 0 -23 9 -33 20 -10
11 -24 20 -32 20 -7 0 -13 5 -13 10 0 6 -9 10 -19 10 -37 0 -32 19 6 26 31 6
34 8 18 15 -11 4 -15 8 -8 8 7 1 10 7 7 15 -7 17 -44 9 -44 -10 0 -8 -5 -14
-11 -14 -5 0 -7 5 -4 10 4 6 -6 10 -24 10 -19 0 -34 7 -40 19 -9 17 -4 21 47
40 31 11 69 23 85 27 36 8 35 24 -3 24 -16 0 -30 5 -30 11 0 8 -15 9 -45 5
-31 -5 -45 -4 -45 4 0 6 -4 8 -10 5 -5 -3 -10 -4 -10 0 0 3 10 10 23 15 21 8
21 9 -5 9 -34 1 -37 18 -5 31 18 7 15 9 -23 11 -25 1 -37 3 -27 6 21 6 23 23
2 23 -9 0 -40 9 -70 19 -30 11 -55 16 -55 11 0 -5 6 -11 13 -14 6 -3 -3 -3
-22 0 -23 4 -36 2 -42 -7 -7 -11 -9 -10 -9 5 0 16 -6 18 -40 13 -30 -4 -40 -2
-40 9 0 10 -12 14 -40 14 -22 0 -40 -4 -40 -9z m70 -17 c0 -8 -5 -12 -10 -9
-6 4 -8 11 -5 16 9 14 15 11 15 -7z m-525 -130 c-9 -9 -19 -13 -23 -10 -3 4 0
11 8 16 24 15 33 11 15 -6z m-90 -4 c-3 -5 -11 -10 -16 -10 -6 0 -7 5 -4 10 3
6 11 10 16 10 6 0 7 -4 4 -10z m1015 -29 c0 -8 -71 -22 -79 -15 -3 3 53 21 72
23 4 1 7 -3 7 -8z m-2870 -171 c0 -5 -5 -10 -11 -10 -5 0 -7 5 -4 10 3 6 8 10
11 10 2 0 4 -4 4 -10z m3200 -85 c0 -9 -6 -12 -15 -9 -8 4 -12 10 -9 15 8 14
24 10 24 -6z m-492 -103 c3 -17 -2 -22 -17 -22 -14 0 -21 6 -21 18 0 38 33 41
38 4z m-218 -10 c0 -5 -6 -17 -14 -28 -19 -25 -31 -12 -14 15 13 21 28 28 28
13z m330 -10 c27 -22 21 -40 -30 -77 -30 -22 -60 -33 -60 -21 0 2 10 25 22 52
12 27 21 52 20 57 -4 14 26 7 48 -11z m-2640 -46 c0 -3 -4 -8 -10 -11 -5 -3
-10 -1 -10 4 0 6 5 11 10 11 6 0 10 -2 10 -4z m2580 -116 c0 -11 -7 -20 -15
-20 -8 0 -15 5 -15 11 0 5 5 7 10 4 6 -3 10 1 10 9 0 9 2 16 5 16 3 0 5 -9 5
-20z m-2660 0 c0 -5 -5 -10 -11 -10 -5 0 -7 5 -4 10 3 6 8 10 11 10 2 0 4 -4
4 -10z m2060 -10 c0 -5 -5 -10 -11 -10 -5 0 -7 5 -4 10 3 6 8 10 11 10 2 0 4
-4 4 -10z m-1140 -56 c0 -8 -4 -12 -10 -9 -5 3 -10 10 -10 16 0 5 5 9 10 9 6
0 10 -7 10 -16z m-1013 -56 c-2 -13 -4 -3 -4 22 0 25 2 35 4 23 2 -13 2 -33 0
-45z m798 52 c3 -5 2 -10 -4 -10 -6 0 -8 -7 -5 -15 5 -11 2 -13 -10 -9 -12 5
-14 10 -6 19 5 6 7 15 3 18 -3 4 -1 7 5 7 6 0 14 -4 17 -10z m598 -59 c-19
-22 -43 -28 -43 -10 0 5 4 8 9 5 4 -3 16 3 26 14 24 27 32 18 8 -9z m73 -51
c0 -19 -5 -30 -13 -30 -10 0 -11 5 -4 18 7 13 6 23 -1 30 -9 9 -8 12 3 12 10
0 15 -10 15 -30z m-6 -55 c0 -8 -4 -15 -10 -15 -5 0 -10 7 -10 15 0 8 5 15 10
15 6 0 10 -7 10 -15z m150 -124 c0 -6 -4 -13 -10 -16 -5 -3 -10 1 -10 9 0 9 5
16 10 16 6 0 10 -4 10 -9z m1140 -71 c0 -5 -5 -10 -11 -10 -5 0 -7 5 -4 10 3
6 8 10 11 10 2 0 4 -4 4 -10z m-1246 -84 c-3 -8 0 -17 5 -21 6 -3 9 -11 5 -16
-3 -5 0 -16 6 -24 10 -12 9 -15 -4 -15 -9 0 -16 -6 -16 -14 0 -10 7 -12 22 -8
l22 5 -22 -23 c-12 -13 -22 -32 -22 -41 0 -14 -10 -19 -47 -21 -48 -3 -48 -3
-51 -42 -4 -42 -35 -81 -58 -72 -7 3 -11 0 -8 -7 2 -7 -11 -21 -31 -31 -19
-11 -35 -25 -35 -32 0 -7 -5 -16 -12 -20 -6 -4 -8 -3 -4 4 10 17 -10 23 -38
12 -15 -5 -28 -20 -32 -37 -7 -26 -7 -26 -15 -5 -5 13 -17 22 -29 22 -11 0
-20 5 -20 12 0 6 -3 9 -6 5 -3 -3 -18 -1 -34 5 -20 6 -36 6 -52 -2 -19 -9 -21
-9 -8 2 8 7 14 27 14 43 l-2 30 5 -30 c5 -27 6 -28 13 -10 8 18 9 18 9 2 1
-10 6 -15 11 -12 6 4 17 2 24 -4 9 -8 18 -7 32 4 18 14 18 14 -6 16 -14 1 -28
1 -32 0 -5 0 -8 9 -8 21 0 16 3 19 11 11 6 -6 18 -9 25 -6 8 3 14 0 14 -6 0
-13 29 -14 48 -3 10 7 10 16 0 42 -9 26 -9 35 0 38 7 2 10 8 6 13 -3 5 10 9
28 9 25 0 29 3 18 10 -8 5 -12 10 -8 10 3 0 14 3 24 7 13 5 15 3 10 -8 -4 -8
0 -5 8 5 9 11 16 34 17 50 0 30 1 30 10 8 5 -13 7 -28 4 -32 -6 -10 4 -40 14
-40 4 0 5 14 3 31 -3 22 -1 30 7 25 7 -5 11 2 11 18 0 14 5 28 10 31 7 4 9 -2
4 -19 -7 -30 -3 -31 36 -11 18 9 30 24 30 35 0 11 5 20 10 20 6 0 10 -9 10
-20 0 -11 5 -20 10 -20 6 0 10 12 10 28 0 29 34 92 50 92 5 0 7 -6 4 -14z
m1019 -23 c-8 -3 -13 -23 -13 -49 0 -24 -4 -44 -8 -44 -4 0 -6 17 -4 38 5 51
9 62 24 61 10 0 10 -2 1 -6z m-1797 -45 c-1 -18 -6 -32 -11 -30 -5 1 -8 16 -8
32 2 41 2 42 12 36 4 -3 8 -20 7 -38z m586 -17 c2 -17 1 -28 -4 -25 -8 5 -12
54 -4 54 2 0 6 -13 8 -29z m78 -1 c8 -16 8 -20 -3 -20 -8 0 -17 9 -20 20 -3
11 -1 20 4 20 4 0 13 -9 19 -20z m-170 -20 c0 -5 -2 -10 -4 -10 -3 0 -8 5 -11
10 -3 6 -1 10 4 10 6 0 11 -4 11 -10z m46 -9 c0 -11 -5 -17 -10 -14 -5 4 -7
-1 -3 -10 3 -10 2 -17 -4 -17 -20 0 -22 33 -4 46 10 8 19 14 20 14 0 0 1 -9 1
-19z m-113 -58 c-7 -2 -19 -2 -25 0 -7 3 -2 5 12 5 14 0 19 -2 13 -5z m17 -35
c0 -6 -6 -5 -15 2 -8 7 -15 14 -15 16 0 2 7 1 15 -2 8 -4 15 -11 15 -16z m280
18 c0 -2 -7 -9 -15 -16 -12 -10 -15 -10 -15 4 0 9 7 16 15 16 8 0 15 -2 15 -4z
m170 -16 c0 -5 -5 -10 -11 -10 -5 0 -7 5 -4 10 3 6 8 10 11 10 2 0 4 -4 4 -10z
m-90 -35 c0 -14 -4 -25 -10 -25 -5 0 -10 11 -10 25 0 14 5 25 10 25 6 0 10
-11 10 -25z m-393 -7 c-3 -8 -6 -5 -6 6 -1 11 2 17 5 13 3 -3 4 -12 1 -19z
m-20 -20 c-3 -8 -6 -5 -6 6 -1 11 2 17 5 13 3 -3 4 -12 1 -19z m48 2 c-3 -5
-11 -10 -16 -10 -6 0 -7 5 -4 10 3 6 11 10 16 10 6 0 7 -4 4 -10z m2461 -27
c-10 -10 -19 5 -10 18 6 11 8 11 12 0 2 -7 1 -15 -2 -18z m-2641 -61 c-3 -3
-11 0 -18 7 -9 10 -8 11 6 5 10 -3 15 -9 12 -12z m-145 -17 c0 -8 5 -15 10
-15 13 0 13 -47 -1 -55 -6 -4 -13 -4 -17 0 -4 4 -1 10 6 12 6 3 12 11 12 19 0
7 -6 11 -14 8 -10 -4 -14 2 -12 20 1 27 16 37 16 11z m40 5 c0 -5 -4 -10 -9
-10 -6 0 -13 5 -16 10 -3 6 1 10 9 10 9 0 16 -4 16 -10z m51 -20 c10 0 19 -5
19 -11 0 -6 -7 -9 -15 -5 -10 3 -15 -1 -15 -12 0 -15 -2 -15 -10 -2 -5 8 -9
24 -9 35 0 11 3 14 6 8 2 -7 13 -13 24 -13z m-41 -7 c0 -5 -5 -15 -10 -23 -8
-12 -10 -11 -10 8 0 12 5 22 10 22 6 0 10 -3 10 -7z m697 -19 c2 -10 0 -13 -3
-6 -3 6 -10 10 -15 6 -5 -3 -9 2 -9 11 0 23 24 13 27 -11z m-644 -31 c-7 -17
2 -17 21 3 14 14 18 13 36 -4 16 -14 19 -26 14 -46 -7 -29 -19 -34 -28 -11 -3
8 0 14 7 12 7 -1 12 5 12 13 0 19 -35 26 -45 10 -4 -7 -4 -26 0 -41 8 -28 -2
-40 -15 -19 -3 6 -12 10 -18 10 -9 0 -8 -3 1 -8 7 -5 10 -17 6 -28 -4 -13 -3
-15 3 -6 8 10 12 10 23 -3 7 -8 10 -18 6 -22 -3 -3 -6 -1 -6 5 0 6 -7 9 -16 5
-13 -5 -13 -7 -2 -14 10 -7 10 -9 -2 -8 -20 1 -59 17 -42 18 6 1 12 6 12 12 0
6 -6 9 -14 6 -7 -3 -19 0 -25 6 -8 8 -11 8 -11 -1 0 -7 4 -12 8 -12 13 0 10
-30 -2 -30 -6 0 -3 -7 7 -15 11 -7 17 -22 14 -32 -3 -15 -6 -13 -15 10 -6 15
-17 27 -23 27 -6 0 -9 6 -6 14 4 10 0 12 -14 9 -20 -6 -26 11 -8 22 6 4 8 13
5 21 -7 19 25 56 38 45 27 -20 42 -18 44 5 1 13 -3 24 -8 24 -6 0 -10 8 -10
18 0 14 8 19 29 19 20 0 28 -4 24 -14z m127 9 c0 -4 -9 -8 -20 -9 -11 -1 -18
2 -15 8 7 11 35 12 35 1z m23 -12 c-3 -11 -7 -20 -9 -20 -2 0 -4 9 -4 20 0 11
4 20 9 20 5 0 7 -9 4 -20z m-249 -19 c3 -5 -1 -12 -10 -15 -22 -9 -24 -8 -24
9 0 16 25 21 34 6z m246 -35 c0 -2 -7 -7 -16 -10 -8 -3 -12 -2 -9 4 6 10 25
14 25 6z m-955 -35 c3 -5 1 -12 -5 -16 -5 -3 -10 1 -10 9 0 18 6 21 15 7z
m265 -36 c0 -8 -4 -15 -9 -15 -5 0 -14 7 -21 15 -10 13 -9 15 9 15 12 0 21 -6
21 -15z m3220 -1 c0 -8 -4 -12 -10 -9 -5 3 -10 10 -10 16 0 5 5 9 10 9 6 0 10
-7 10 -16z m-3145 -24 c3 -5 1 -10 -4 -10 -6 0 -11 5 -11 10 0 6 2 10 4 10 3
0 8 -4 11 -10z m145 -10 c0 -5 -4 -10 -10 -10 -5 0 -10 5 -10 10 0 6 5 10 10
10 6 0 10 -4 10 -10z m150 -10 c0 -5 -4 -10 -10 -10 -5 0 -10 5 -10 10 0 6 5
10 10 10 6 0 10 -4 10 -10z m-309 -41 c4 -6 17 -8 30 -5 13 3 18 3 12 0 -7 -3
-13 -21 -13 -41 0 -19 -7 -41 -15 -49 -11 -11 -15 -12 -15 -3 0 7 -2 10 -5 8
-2 -3 -2 -15 2 -27 5 -21 6 -21 19 -5 12 17 13 17 20 -2 5 -11 16 -29 26 -40
18 -19 19 -19 16 12 -1 17 3 37 10 45 6 8 8 18 4 23 -4 4 0 6 8 3 8 -3 14 -13
12 -22 -2 -9 7 -20 20 -26 19 -7 19 -9 5 -9 -26 -1 -16 -24 11 -26 29 -2 38
-13 24 -27 -16 -16 -15 -58 1 -59 10 0 10 -2 0 -6 -18 -7 -16 -23 2 -23 8 0
15 7 15 16 0 11 6 14 23 10 12 -3 16 -3 9 0 -17 8 -5 24 19 24 10 0 19 4 19 9
0 5 15 12 34 15 19 4 40 14 47 24 11 14 11 15 0 5 -20 -17 -40 -5 -33 20 5 20
6 20 13 1 5 -13 8 -7 8 24 1 31 5 42 17 42 8 0 12 5 9 10 -8 13 5 13 25 0 13
-8 12 -10 -2 -10 -14 0 -18 -9 -18 -39 0 -22 5 -43 11 -47 17 -10 2 -62 -26
-90 -14 -14 -25 -28 -25 -32 0 -12 -60 -34 -75 -28 -31 11 -23 -13 10 -34 31
-19 33 -23 20 -37 -21 -21 -48 -9 -40 17 4 14 2 20 -9 20 -8 0 -20 8 -25 18
-9 15 -10 15 -11 0 0 -9 7 -23 15 -32 20 -20 19 -26 -7 -26 -17 0 -19 -3 -10
-12 18 -18 15 -25 -18 -31 -29 -6 -40 -29 -20 -42 17 -10 11 -32 -10 -38 -27
-7 -63 55 -63 108 0 32 -1 35 -8 18 -4 -12 -4 -37 2 -55 20 -73 -4 -34 -36 57
-4 12 -9 15 -12 8 -2 -7 1 -22 7 -33 14 -27 3 -42 -12 -16 -8 15 -12 16 -20 5
-5 -9 -6 -1 -2 24 5 31 4 36 -9 31 -26 -10 -41 6 -20 22 15 11 16 15 4 23 -11
7 -10 11 5 19 15 9 17 13 7 23 -19 19 -16 39 5 33 9 -4 4 3 -13 15 -16 11 -36
21 -42 21 -16 0 -18 97 -3 120 9 13 11 13 19 0 6 -8 14 -11 18 -6 4 5 2 11 -4
13 -8 3 -13 22 -13 44 0 28 -4 39 -15 39 -9 0 -15 9 -15 25 0 25 0 25 37 10
21 -9 40 -21 44 -26z m1979 27 c0 -8 -4 -18 -10 -21 -5 -3 -10 -4 -10 -1 0 2
-3 11 -6 20 -4 11 -1 16 10 16 9 0 16 -6 16 -14z m-2110 -21 c0 -8 -4 -15 -10
-15 -5 0 -10 7 -10 15 0 8 5 15 10 15 6 0 10 -7 10 -15z m40 -12 c0 -16 -4
-34 -9 -41 -12 -20 -23 12 -15 44 8 33 24 30 24 -3z m467 -9 c-3 -3 -12 -4
-19 -1 -8 3 -5 6 6 6 11 1 17 -2 13 -5z m-573 -11 c-36 -4 -42 -8 -51 -38 -7
-20 -7 -37 -1 -43 5 -5 5 -17 1 -28 -6 -16 -8 -15 -13 11 -3 16 -4 46 -2 65
l4 37 51 0 c44 0 46 -1 11 -4z m629 0 c-7 -2 -19 -2 -25 0 -7 3 -2 5 12 5 14
0 19 -2 13 -5z m1787 -18 c0 -8 -4 -15 -10 -15 -5 0 -10 7 -10 15 0 8 5 15 10
15 6 0 10 -7 10 -15z m-2380 -5 c0 -5 -11 -10 -25 -10 -14 0 -25 5 -25 10 0 6
11 10 25 10 14 0 25 -4 25 -10z m607 -1 c-9 -6 -15 -14 -12 -20 4 -5 -3 -9
-14 -9 -11 0 -23 5 -26 11 -4 6 -17 14 -29 19 -15 5 -3 8 39 8 45 1 56 -1 42
-9z m-624 -26 c-13 -2 -33 -2 -45 0 -13 2 -3 4 22 4 25 0 35 -2 23 -4z m1732
-23 c0 -8 -6 -14 -12 -12 -11 2 -18 -17 -14 -40 0 -5 -10 -8 -24 -8 -22 0 -25
4 -25 34 0 28 4 35 23 39 35 7 52 3 52 -13z m-1770 0 c-3 -5 -10 -10 -16 -10
-5 0 -9 5 -9 10 0 6 7 10 16 10 8 0 12 -4 9 -10z m405 -31 c0 -11 -4 -17 -10
-14 -5 3 -10 13 -10 21 0 8 5 14 10 14 6 0 10 -9 10 -21z m720 9 c0 -22 -14
-34 -37 -34 -26 0 -29 9 -9 25 11 10 15 8 19 -6 4 -14 5 -13 6 5 1 23 21 32
21 10z m-453 -14 c-3 -3 -12 -4 -19 -1 -8 3 -5 6 6 6 11 1 17 -2 13 -5z m-621
-31 c-10 -10 -19 5 -10 18 6 11 8 11 12 0 2 -7 1 -15 -2 -18z m-68 -15 c-2 -6
-10 -14 -16 -16 -7 -2 -10 2 -6 12 7 18 28 22 22 4z m22 -62 c0 -3 -4 -8 -10
-11 -5 -3 -10 -1 -10 4 0 6 5 11 10 11 6 0 10 -2 10 -4z m1007 -21 c-4 -8 -11
-15 -17 -15 -14 0 -13 27 3 33 16 6 21 1 14 -18z m2276 -15 c3 -11 1 -23 -4
-26 -5 -3 -5 -13 1 -24 15 -28 12 -67 -6 -74 -12 -4 -15 -2 -10 9 3 9 -3 20
-14 27 -11 7 -20 19 -20 26 0 7 4 11 9 7 12 -7 31 27 31 55 0 15 -5 20 -14 17
-10 -4 -13 -1 -9 9 7 18 28 3 36 -26z m-759 -6 c4 -10 1 -14 -6 -12 -15 5 -23
28 -10 28 5 0 13 -7 16 -16z m715 3 c15 -19 2 -29 -15 -12 -8 7 -14 16 -14 19
0 11 17 6 29 -7z m-2653 -34 c-11 -11 -19 6 -11 24 8 17 8 17 12 0 3 -10 2
-21 -1 -24z m-26 16 c0 -6 -7 -17 -15 -25 -16 -16 -19 -7 -9 20 7 18 24 22 24
5z m-429 -22 c-10 -9 -11 -8 -5 6 3 10 9 15 12 12 3 -3 0 -11 -7 -18z m813 8
c-4 -8 -8 -15 -10 -15 -2 0 -4 7 -4 15 0 8 4 15 10 15 5 0 7 -7 4 -15z m-844
-5 c0 -5 -2 -10 -4 -10 -3 0 -8 5 -11 10 -3 6 -1 10 4 10 6 0 11 -4 11 -10z
m857 -9 c14 12 16 12 8 0 -7 -12 -1 -13 29 -8 27 4 36 3 33 -6 -3 -7 -10 -11
-16 -9 -7 1 -10 -2 -7 -7 4 -5 -2 -14 -11 -20 -16 -9 -16 -10 -1 -11 9 0 19
-4 22 -9 3 -5 -14 -6 -38 -4 -37 5 -45 2 -48 -13 -3 -13 -8 -6 -18 23 -15 50
-8 82 15 63 12 -10 18 -10 32 1z m-1086 -48 c-12 -20 -14 -14 -5 12 4 9 9 14
11 11 3 -2 0 -13 -6 -23z m226 -45 c-3 -8 -6 -5 -6 6 -1 11 2 17 5 13 3 -3 4
-12 1 -19z m1781 -20 c2 -11 -6 -15 -28 -16 -17 0 -45 -4 -61 -7 -22 -5 -29
-3 -29 8 0 16 27 31 47 28 6 -1 14 3 18 8 8 14 49 -3 53 -21z m1155 -18 c3
-11 1 -20 -4 -20 -5 0 -9 4 -9 9 0 5 -3 17 -7 27 -4 11 -3 15 4 11 6 -4 13
-16 16 -27z m-1596 -2 c-3 -8 -6 -5 -6 6 -1 11 2 17 5 13 3 -3 4 -12 1 -19z
m1793 5 c0 -29 -12 -63 -19 -58 -10 6 -1 75 10 75 5 0 9 -8 9 -17z m-2838 -8
c0 -5 -5 -11 -11 -13 -6 -2 -11 4 -11 13 0 9 5 15 11 13 6 -2 11 -8 11 -13z
m1526 -4 c3 -8 -1 -12 -9 -9 -7 2 -15 10 -17 17 -3 8 1 12 9 9 7 -2 15 -10 17
-17z m1052 -24 c0 -5 -4 -5 -10 -2 -5 3 -10 14 -10 23 0 15 2 15 10 2 5 -8 10
-19 10 -23z m224 9 c-6 -16 -24 -23 -24 -8 0 10 22 33 27 28 2 -2 1 -11 -3
-20z m-2744 -16 c0 -5 -4 -10 -9 -10 -6 0 -13 5 -16 10 -3 6 1 10 9 10 9 0 16
-4 16 -10z m30 -17 c0 -14 -3 -23 -7 -19 -10 10 -11 46 -1 46 4 0 8 -12 8 -27z
m2541 -10 c-5 -26 -6 -26 -9 -5 -2 12 -8 20 -13 17 -5 -4 -9 -1 -9 4 0 6 8 11
19 11 15 0 17 -5 12 -27z m-2781 7 c0 -5 -4 -10 -10 -10 -5 0 -10 5 -10 10 0
6 5 10 10 10 6 0 10 -4 10 -10z m2490 -10 c8 0 21 -9 28 -20 10 -17 10 -23 -1
-34 -14 -14 -38 -7 -39 10 -2 23 -11 44 -19 44 -5 0 -9 5 -9 12 0 9 3 9 12 0
7 -7 19 -12 28 -12z m240 -19 c0 -6 -7 -11 -15 -11 -9 0 -15 10 -15 26 0 23 2
24 15 10 8 -8 15 -19 15 -25z m95 29 c-3 -5 -10 -10 -16 -10 -5 0 -9 5 -9 10
0 6 7 10 16 10 8 0 12 -4 9 -10z m119 -16 c4 -15 4 -29 1 -32 -8 -8 -25 19
-25 41 0 26 17 20 24 -9z m-2777 -4 c8 -31 5 -34 -32 -35 -41 -1 -40 -2 -19
30 20 30 44 32 51 5z m2819 -6 c-3 -9 -6 -32 -7 -52 -1 -34 -1 -35 -9 -11 -9
31 -2 79 12 79 6 0 7 -7 4 -16z m-172 -11 c-5 -5 -12 -12 -16 -18 -4 -6 -8 -2
-8 8 0 9 7 17 17 17 9 0 12 -3 7 -7z m-44 -13 c0 -5 -4 -10 -9 -10 -6 0 -13 5
-16 10 -3 6 1 10 9 10 9 0 16 -4 16 -10z m-324 -24 c0 -15 -5 -21 -10 -16 -5
5 -6 16 -3 24 9 23 15 19 13 -8z m114 -7 c0 -6 -4 -7 -10 -4 -5 3 -10 11 -10
16 0 6 5 7 10 4 6 -3 10 -11 10 -16z m-2400 1 c0 -5 -4 -10 -10 -10 -5 0 -10
5 -10 10 0 6 5 10 10 10 6 0 10 -4 10 -10z m2333 -6 c18 -7 24 -24 7 -24 -5 0
-10 -13 -10 -29 0 -16 -6 -32 -12 -34 -9 -4 -7 -6 3 -6 9 -1 24 -11 35 -23 10
-12 13 -18 7 -14 -9 5 -13 -1 -14 -21 0 -24 -2 -25 -8 -8 -7 18 -8 18 -14 -5
-3 -14 -2 -43 3 -65 5 -22 7 -42 4 -44 -7 -8 -24 21 -24 42 0 9 -8 17 -17 17
-10 0 -14 4 -8 8 15 11 13 78 -2 75 -7 -2 -13 3 -13 10 0 6 -3 22 -6 35 -4 13
-2 22 5 22 6 0 11 -8 12 -17 0 -10 5 -4 10 12 5 17 7 43 4 58 -3 21 -1 27 8
23 6 -3 20 -9 30 -12z m-2322 -31 c-10 -17 -10 -16 -11 3 0 23 13 41 18 25 2
-6 -1 -18 -7 -28z m2239 27 c0 -5 -2 -10 -4 -10 -3 0 -8 5 -11 10 -3 6 -1 10
4 10 6 0 11 -4 11 -10z m180 -22 c0 -5 -7 -8 -15 -8 -17 0 -18 2 -9 25 5 13 8
14 15 3 5 -7 9 -16 9 -20z m104 -4 c3 -8 2 -12 -4 -9 -6 3 -10 10 -10 16 0 14
7 11 14 -7z m-274 -9 c0 -8 -2 -15 -4 -15 -2 0 -6 7 -10 15 -3 8 -1 15 4 15 6
0 10 -7 10 -15z m-257 -44 c27 -11 59 -64 51 -85 -4 -10 3 -13 25 -10 24 3 30
0 29 -14 -3 -36 2 -63 12 -57 5 3 6 13 3 22 -4 10 -2 14 5 9 13 -8 11 -44 -3
-67 -6 -8 -25 -24 -42 -34 -18 -11 -32 -26 -30 -34 1 -7 -5 -16 -13 -18 -12
-4 -13 -3 -1 5 11 8 10 12 -6 20 -11 6 -29 8 -41 5 -16 -4 -22 -1 -22 11 0 20
-14 21 -30 2 -6 -8 -18 -12 -26 -9 -10 4 -11 9 -4 18 12 15 -21 35 -65 39 -18
1 -29 7 -27 15 2 8 -4 10 -17 6 -10 -3 -25 0 -33 8 -7 7 -19 12 -25 10 -7 -3
-18 5 -25 16 -15 25 -31 27 -48 7 -6 -8 -18 -12 -26 -9 -8 3 -14 -1 -14 -11 0
-22 -39 -21 -57 2 -8 9 -12 11 -8 5 7 -15 -11 -18 -20 -3 -13 21 7 59 38 70
18 6 33 10 35 10 1 0 17 8 35 17 17 10 37 18 42 19 6 0 24 7 40 13 17 7 52 14
78 16 26 1 51 5 54 9 10 9 109 7 136 -3z m357 -153 c0 -5 -4 -8 -10 -8 -5 0
-10 10 -10 23 0 18 2 19 10 7 5 -8 10 -18 10 -22z m100 -24 c0 -8 -4 -12 -10
-9 -5 3 -10 10 -10 16 0 5 5 9 10 9 6 0 10 -7 10 -16z m376 -140 c-4 -9 -9
-15 -11 -12 -3 3 -3 13 1 22 4 9 9 15 11 12 3 -3 3 -13 -1 -22z m-909 -10 c-3
-3 -12 -4 -19 -1 -8 3 -5 6 6 6 11 1 17 -2 13 -5z m-127 -76 c0 -19 2 -20 10
-8 7 10 12 12 18 4 4 -6 14 -14 22 -18 8 -3 3 -4 -12 -1 -30 6 -31 5 -22 -19
9 -24 40 -19 62 9 15 19 21 22 25 11 3 -8 1 -17 -6 -19 -9 -3 -9 -7 0 -18 8
-11 8 -23 -3 -54 -7 -22 -11 -50 -8 -62 5 -17 2 -23 -11 -23 -9 0 -14 -4 -10
-9 3 -6 -4 -15 -15 -21 -22 -12 -20 -13 -50 68 -7 17 -15 32 -19 32 -4 0 -8
11 -9 25 -2 33 11 32 36 -2 11 -16 24 -24 29 -20 4 5 0 15 -10 22 -10 7 -21
29 -24 49 -3 21 -11 36 -19 36 -14 0 -19 22 -7 33 13 13 23 7 23 -15z m-70
-154 c0 -8 -4 -12 -10 -9 -5 3 -10 10 -10 16 0 5 5 9 10 9 6 0 10 -7 10 -16z
m40 -14 c0 -5 -4 -10 -9 -10 -6 0 -13 5 -16 10 -3 6 1 10 9 10 9 0 16 -4 16
-10z m-50 -30 c13 -9 13 -10 0 -10 -8 0 -22 5 -30 10 -13 9 -13 10 0 10 8 0
22 -5 30 -10z m-20 -20 c0 -5 -4 -10 -10 -10 -5 0 -10 5 -10 10 0 6 5 10 10
10 6 0 10 -4 10 -10z m50 -21 c0 -6 -4 -7 -10 -4 -5 3 -10 11 -10 16 0 6 5 7
10 4 6 -3 10 -11 10 -16z m-2150 -259 c0 -5 -2 -10 -4 -10 -3 0 -8 5 -11 10
-3 6 -1 10 4 10 6 0 11 -4 11 -10z m3480 -182 c0 -5 -5 -8 -11 -8 -5 0 -7 5
-4 10 3 6 -1 10 -9 10 -9 0 -16 4 -16 9 0 5 -3 18 -6 28 -3 11 4 7 20 -12 14
-16 26 -33 26 -37z m-3077 -3 c-5 -13 -23 -22 -23 -11 0 15 14 35 21 31 4 -3
6 -12 2 -20z m-503 -6 c0 -6 -4 -7 -10 -4 -5 3 -10 11 -10 16 0 6 5 7 10 4 6
-3 10 -11 10 -16z m3570 -19 c0 -5 6 -10 14 -10 23 0 66 -78 86 -155 20 -77
24 -151 9 -161 -5 -3 -9 2 -9 10 0 20 -7 20 -27 1 -8 -9 -18 -13 -21 -10 -4 3
-2 9 4 13 16 11 24 41 14 47 -6 4 -10 18 -10 33 0 15 -7 40 -15 56 -18 34 -18
36 -5 36 6 0 10 -7 10 -15 0 -8 5 -15 10 -15 18 0 10 30 -13 53 -13 12 -29 41
-35 65 -13 42 -26 53 -35 30 -3 -7 -6 -3 -6 10 -1 13 5 22 14 22 8 0 15 -4 15
-10z m-3590 -56 c0 -8 -5 -12 -10 -9 -6 4 -8 11 -5 16 9 14 15 11 15 -7z m780
6 c0 -5 -5 -10 -11 -10 -5 0 -7 5 -4 10 3 6 8 10 11 10 2 0 4 -4 4 -10z m44
-66 c3 -8 2 -12 -4 -9 -6 3 -10 10 -10 16 0 14 7 11 14 -7z m92 -210 c-3 -9
-6 -18 -6 -20 0 -2 -4 -4 -9 -4 -5 0 -7 9 -4 20 3 11 10 20 15 20 6 0 7 -7 4
-16z m2711 -16 c-3 -8 -6 -5 -6 6 -1 11 2 17 5 13 3 -3 4 -12 1 -19z m73 -19
c0 -14 -27 -10 -33 5 -4 10 0 12 14 9 10 -3 19 -9 19 -14z m-20 -65 c0 -8 -4
-12 -10 -9 -5 3 -10 10 -10 16 0 5 5 9 10 9 6 0 10 -7 10 -16z m-3626 -70 c3
-8 2 -12 -4 -9 -6 3 -10 10 -10 16 0 14 7 11 14 -7z m26 -65 c0 -10 -4 -19
-10 -19 -5 0 -9 11 -8 24 3 28 18 24 18 -5z m85 -169 c-12 -19 -23 -10 -28 23
-3 17 -8 43 -11 57 -4 14 5 3 19 -23 14 -26 23 -52 20 -57z m1580 10 c-3 -5
-13 -6 -21 -3 -12 4 -13 8 -3 14 15 9 32 2 24 -11z m115 10 c0 -5 -7 -7 -15
-4 -8 4 -15 8 -15 10 0 2 7 4 15 4 8 0 15 -4 15 -10z m-125 -100 c3 -5 2 -10
-4 -10 -5 0 -13 5 -16 10 -3 6 -2 10 4 10 5 0 13 -4 16 -10z m350 -50 c3 -5 1
-10 -4 -10 -6 0 -11 5 -11 10 0 6 2 10 4 10 3 0 8 -4 11 -10z m-1835 -9 c0 -6
-4 -13 -10 -16 -5 -3 -10 1 -10 9 0 9 5 16 10 16 6 0 10 -4 10 -9z m1470 -11
c0 -5 -5 -10 -11 -10 -5 0 -7 5 -4 10 3 6 8 10 11 10 2 0 4 -4 4 -10z m-1516
-21 c-3 -5 -10 -7 -15 -3 -5 3 -7 10 -3 15 3 5 10 7 15 3 5 -3 7 -10 3 -15z
m1588 -42 c-16 -16 -25 -18 -33 -10 -8 8 -6 18 7 36 16 21 20 22 33 10 12 -13
11 -17 -7 -36z m330 -7 c4 0 8 -7 8 -15 0 -8 -4 -15 -9 -15 -5 0 -11 -9 -14
-21 -9 -34 -26 -12 -22 29 7 81 6 79 18 50 6 -16 14 -28 19 -28z m-267 30 c3
-5 -1 -10 -10 -10 -9 0 -13 5 -10 10 3 6 8 10 10 10 2 0 7 -4 10 -10z m-1585
-24 c0 -3 -4 -8 -10 -11 -5 -3 -10 -1 -10 4 0 6 5 11 10 11 6 0 10 -2 10 -4z
m1583 -36 c4 -16 2 -17 -19 -8 -24 11 -29 20 -18 31 10 10 32 -3 37 -23z m114
15 c8 -22 -6 -33 -17 -15 -13 20 -12 30 0 30 6 0 13 -7 17 -15z m-270 -37 c-3
-7 -5 -2 -5 12 0 14 2 19 5 13 2 -7 2 -19 0 -25z m33 8 c0 -3 -4 -8 -10 -11
-5 -3 -10 -1 -10 4 0 6 5 11 10 11 6 0 10 -2 10 -4z m65 -16 c-3 -5 -11 -10
-16 -10 -6 0 -7 5 -4 10 3 6 11 10 16 10 6 0 7 -4 4 -10z m45 -5 c10 -12 10
-15 -4 -15 -9 0 -16 7 -16 15 0 8 2 15 4 15 2 0 9 -7 16 -15z m144 2 c11 -10
10 -15 -1 -26 -8 -7 -12 -19 -9 -27 7 -17 -1 -18 -18 -1 -23 23 -26 46 -8 56
22 13 21 13 36 -2z m-1704 -7 c0 -5 -7 -10 -16 -10 -8 0 -12 5 -9 10 3 6 10
10 16 10 5 0 9 -4 9 -10z m1336 -27 c-5 -16 -4 -16 8 1 17 22 46 15 46 -11 0
-15 -2 -15 -15 3 -14 18 -14 17 -15 -13 0 -32 20 -57 28 -35 5 17 31 15 38 -2
3 -8 16 -13 30 -11 13 1 24 -3 24 -9 0 -7 3 -7 8 1 5 9 13 7 29 -5 25 -20 38
-58 23 -67 -5 -3 -10 -16 -10 -28 l1 -22 19 23 18 22 22 -30 22 -30 -21 -35
c-11 -19 -16 -35 -11 -35 5 0 12 9 15 20 5 17 25 29 25 16 0 -2 3 -11 6 -20 4
-10 1 -16 -9 -16 -12 0 -14 -6 -8 -28 6 -19 4 -37 -5 -53 -7 -13 -13 -19 -14
-13 0 16 -28 26 -35 13 -4 -5 -1 -8 6 -7 7 2 13 -7 13 -22 0 -16 -6 -26 -17
-28 -10 -2 -17 3 -17 13 0 9 -4 13 -10 10 -15 -9 -11 17 5 39 18 24 19 36 3
36 -29 1 -49 27 -42 55 4 16 12 24 20 21 8 -3 12 2 11 15 -1 20 -27 28 -27 8
0 -23 -33 -79 -46 -79 -8 0 -14 5 -14 11 0 6 -6 9 -12 6 -7 -2 -12 -10 -10
-16 1 -6 -3 -11 -9 -11 -6 0 -8 7 -5 16 4 11 2 15 -8 11 -7 -3 -25 7 -38 21
-26 28 -45 68 -28 57 6 -3 10 0 10 8 0 8 -8 14 -17 13 -13 -1 -17 6 -16 24 1
14 4 50 7 82 4 59 14 98 23 98 3 0 2 -8 -1 -17z m389 -3 c3 -5 1 -10 -4 -10
-6 0 -11 5 -11 10 0 6 2 10 4 10 3 0 8 -4 11 -10z m-1655 -26 c0 -14 -3 -14
-15 -4 -8 7 -15 14 -15 16 0 2 7 4 15 4 8 0 15 -7 15 -16z m1797 -6 c-3 -8 -6
-5 -6 6 -1 11 2 17 5 13 3 -3 4 -12 1 -19z m-137 2 c0 -5 -5 -10 -11 -10 -5 0
-7 5 -4 10 3 6 8 10 11 10 2 0 4 -4 4 -10z m210 -60 c0 -5 -5 -10 -11 -10 -5
0 -7 5 -4 10 3 6 8 10 11 10 2 0 4 -4 4 -10z m-1810 -25 c7 -9 8 -15 2 -15 -5
0 -12 7 -16 15 -3 8 -4 15 -2 15 2 0 9 -7 16 -15z m1843 -33 c7 -9 7 -16 1
-20 -16 -11 -25 -42 -12 -39 7 1 13 -7 15 -18 3 -17 2 -18 -7 -5 -9 11 -13 12
-17 3 -2 -7 -11 -13 -19 -13 -8 0 -14 -4 -14 -10 0 -5 -4 -10 -10 -10 -5 0
-10 7 -10 15 0 8 -4 15 -10 15 -5 0 -10 7 -10 16 0 8 4 13 8 10 5 -3 9 13 10
35 2 48 8 60 26 53 8 -3 18 1 22 8 6 10 9 8 12 -7 2 -11 9 -26 15 -33z m-1806
-32 c-1 -23 -22 -10 -30 20 -4 16 -2 18 13 10 10 -6 18 -19 17 -30z m1097 -16
c9 -24 7 -27 -9 -10 -17 17 -19 26 -6 26 5 0 12 -7 15 -16z m23 -46 c-3 -8 -6
-5 -6 6 -1 11 2 17 5 13 3 -3 4 -12 1 -19z m-107 -41 c0 -8 -3 -16 -6 -20 -8
-8 -34 3 -34 15 0 6 7 7 16 4 8 -3 12 -2 9 4 -3 6 -1 10 4 10 6 0 11 -6 11
-13z m1080 -17 c0 -5 -2 -10 -4 -10 -3 0 -8 5 -11 10 -3 6 -1 10 4 10 6 0 11
-4 11 -10z m322 -48 c-7 -2 -9 -9 -6 -15 5 -8 4 -9 -4 -2 -6 6 -8 23 -5 40 l6
30 11 -24 c8 -18 8 -25 -2 -29z m-1069 -15 c-5 -8 -8 -7 -11 1 -2 7 -10 12
-17 12 -7 0 -16 7 -19 16 -3 8 -2 12 4 9 6 -3 10 -1 10 6 0 7 9 2 20 -11 11
-12 17 -27 13 -33z m-203 18 c5 -14 12 -25 14 -25 3 0 3 6 0 14 -3 8 -1 17 5
21 8 4 9 -6 5 -32 -3 -21 -7 -39 -9 -41 -3 -3 -45 75 -45 83 0 16 22 1 30 -20z
m931 -44 c-8 -22 -9 -19 -10 24 0 42 2 46 10 26 6 -15 6 -34 0 -50z m201 -18
c-7 -21 -21 -15 -28 12 -4 15 -1 32 7 42 13 14 15 13 20 -13 3 -16 3 -35 1
-41z m-80 -7 c-9 -18 -11 -16 -11 19 0 33 1 37 10 21 8 -12 8 -25 1 -40z
m-1072 4 c0 -22 -3 -40 -8 -40 -4 0 -6 18 -4 40 2 22 6 40 8 40 2 0 4 -18 4
-40z m1047 -17 c-3 -10 -5 -2 -5 17 0 19 2 27 5 18 2 -10 2 -26 0 -35z m-192
27 c3 -5 1 -10 -4 -10 -6 0 -11 5 -11 10 0 6 2 10 4 10 3 0 8 -4 11 -10z
m-788 -62 c-3 -8 -6 -5 -6 6 -1 11 2 17 5 13 3 -3 4 -12 1 -19z m-71 -42 c0
-14 -5 -21 -9 -17 -4 4 -5 15 -1 24 9 24 12 21 10 -7z m54 20 c0 -3 -4 -8 -10
-11 -5 -3 -10 -1 -10 4 0 6 5 11 10 11 6 0 10 -2 10 -4z m3276 -2038 c-23 -80
-14 -113 50 -182 l35 -38 70 6 c65 7 105 16 154 36 11 4 52 13 90 20 74 12
203 48 220 60 27 20 119 43 195 50 47 4 93 11 104 15 14 6 17 4 14 -5 -4 -14
-86 -44 -149 -54 -20 -4 -63 -23 -95 -44 -98 -63 -399 -191 -511 -217 -153
-36 -273 47 -273 187 1 74 57 188 93 188 5 0 6 -10 3 -22z m-9656 -5448 c0 -5
-2 -10 -4 -10 -3 0 -8 5 -11 10 -3 6 -1 10 4 10 6 0 11 -4 11 -10z m87 -151
c2 -17 -1 -18 -13 -9 -17 15 -18 30 -1 30 7 0 13 -9 14 -21z m73 -99 c0 -5 -2
-10 -4 -10 -3 0 -8 5 -11 10 -3 6 -1 10 4 10 6 0 11 -4 11 -10z m84 -165 c3
-8 1 -15 -4 -15 -6 0 -10 7 -10 15 0 8 2 15 4 15 2 0 6 -7 10 -15z"/>
<path d="M6368 12043 c7 -3 16 -2 19 1 4 3 -2 6 -13 5 -11 0 -14 -3 -6 -6z"/>
<path d="M6345 12010 c3 -5 10 -10 16 -10 5 0 9 5 9 10 0 6 -7 10 -16 10 -8 0
-12 -4 -9 -10z"/>
<path d="M6301 11910 c12 -33 24 -42 14 -10 -5 15 -2 20 12 20 15 0 16 2 3 10
-30 19 -40 12 -29 -20z"/>
<path d="M6270 11899 c0 -5 5 -7 10 -4 6 3 10 8 10 11 0 2 -4 4 -10 4 -5 0
-10 -5 -10 -11z"/>
<path d="M5990 11738 c0 -6 3 -8 7 -5 3 4 12 2 20 -4 10 -9 13 -8 13 5 0 9 -8
16 -20 16 -11 0 -20 -5 -20 -12z"/>
<path d="M5610 11396 c0 -17 14 -29 23 -20 8 8 -3 34 -14 34 -5 0 -9 -6 -9
-14z"/>
<path d="M5669 11378 c0 -2 -2 -10 -4 -18 -2 -8 -7 -25 -11 -37 -5 -17 -2 -23
10 -23 12 0 16 10 16 40 0 22 -2 40 -5 40 -3 0 -5 -1 -6 -2z"/>
<path d="M5840 11360 c0 -5 5 -10 10 -10 6 0 10 5 10 10 0 6 -4 10 -10 10 -5
0 -10 -4 -10 -10z"/>
<path d="M5615 11350 c3 -5 10 -10 16 -10 5 0 9 5 9 10 0 6 -7 10 -16 10 -8 0
-12 -4 -9 -10z"/>
<path d="M5795 11317 c-14 -11 -15 -16 -5 -22 8 -5 16 -1 22 9 5 9 13 14 19
11 5 -4 9 -1 9 4 0 15 -23 14 -45 -2z"/>
<path d="M5840 11220 c0 -5 5 -10 10 -10 6 0 10 5 10 10 0 6 -4 10 -10 10 -5
0 -10 -4 -10 -10z"/>
<path d="M5738 11193 c7 -3 16 -2 19 1 4 3 -2 6 -13 5 -11 0 -14 -3 -6 -6z"/>
<path d="M6345 11250 c3 -5 12 -7 20 -3 21 7 19 13 -6 13 -11 0 -18 -4 -14
-10z"/>
<path d="M7585 10770 c4 -6 11 -8 16 -5 14 9 11 15 -7 15 -8 0 -12 -5 -9 -10z"/>
<path d="M6871 8698 c-1 -22 18 -33 32 -19 8 8 8 14 -1 23 -9 9 -12 8 -13 -7
0 -19 -1 -19 -9 0 -7 16 -9 17 -9 3z"/>
<path d="M6933 8670 c3 -13 0 -28 -9 -37 -19 -20 -18 -39 2 -22 13 10 17 10
25 -2 11 -17 8 -51 -6 -61 -6 -5 -5 -8 3 -8 6 0 12 -7 12 -15 0 -8 7 -15 15
-15 8 0 15 6 15 13 0 19 37 50 49 42 12 -7 4 22 -12 42 -5 7 -7 20 -3 28 3 8
1 15 -5 15 -6 0 -9 -17 -8 -40 2 -21 0 -42 -4 -46 -4 -4 -7 6 -7 22 0 20 -3
25 -9 16 -6 -10 -10 -3 -15 22 -4 20 -11 34 -17 31 -5 -4 -9 1 -9 9 0 8 -5 18
-12 22 -8 5 -9 0 -5 -16z"/>
<path d="M7088 8493 c7 -3 16 -2 19 1 4 3 -2 6 -13 5 -11 0 -14 -3 -6 -6z"/>
<path d="M7491 8584 c0 -11 3 -14 6 -6 3 7 2 16 -1 19 -3 4 -6 -2 -5 -13z"/>
<path d="M6366 13482 c-3 -5 1 -15 9 -22 16 -14 20 -3 6 19 -5 8 -11 9 -15 3z"/>
<path d="M8914 13447 c-49 -58 -48 -46 -9 -189 20 -73 39 -140 42 -148 12 -33
24 51 28 203 l5 157 -23 0 c-13 0 -32 -10 -43 -23z"/>
<path d="M5270 13433 c1 -22 41 -54 62 -50 l23 4 -24 2 c-16 1 -21 5 -17 16 3
10 -1 15 -12 16 -11 1 -8 4 8 9 24 8 23 8 -7 9 -18 1 -33 -2 -33 -6z"/>
<path d="M5388 13433 c7 -3 16 -2 19 1 4 3 -2 6 -13 5 -11 0 -14 -3 -6 -6z"/>
<path d="M5338 13413 c7 -3 16 -2 19 1 4 3 -2 6 -13 5 -11 0 -14 -3 -6 -6z"/>
<path d="M6686 13371 c-3 -5 1 -14 9 -21 9 -7 15 -8 15 -2 0 5 10 8 23 6 12
-2 15 -1 7 2 -8 4 -23 11 -32 15 -10 5 -19 5 -22 0z"/>
<path d="M5500 13344 c0 -8 5 -12 10 -9 6 3 10 10 10 16 0 5 -4 9 -10 9 -5 0
-10 -7 -10 -16z"/>
<path d="M8068 13353 c7 -3 16 -2 19 1 4 3 -2 6 -13 5 -11 0 -14 -3 -6 -6z"/>
<path d="M5420 13340 c0 -5 5 -10 10 -10 6 0 10 5 10 10 0 6 -4 10 -10 10 -5
0 -10 -4 -10 -10z"/>
<path d="M8163 13323 c9 -2 23 -2 30 0 6 3 -1 5 -18 5 -16 0 -22 -2 -12 -5z"/>
<path d="M5420 13300 c0 -5 5 -10 10 -10 6 0 10 5 10 10 0 6 -4 10 -10 10 -5
0 -10 -4 -10 -10z"/>
<path d="M8130 13289 c0 -5 5 -7 10 -4 6 3 10 8 10 11 0 2 -4 4 -10 4 -5 0
-10 -5 -10 -11z"/>
<path d="M8243 13273 c9 -2 23 -2 30 0 6 3 -1 5 -18 5 -16 0 -22 -2 -12 -5z"/>
<path d="M8070 13249 c0 -5 5 -7 10 -4 6 3 10 8 10 11 0 2 -4 4 -10 4 -5 0
-10 -5 -10 -11z"/>
<path d="M8205 13240 c3 -5 10 -10 16 -10 5 0 9 5 9 10 0 6 -7 10 -16 10 -8 0
-12 -4 -9 -10z"/>
<path d="M8155 13210 c-3 -5 -1 -10 4 -10 6 0 11 5 11 10 0 6 -2 10 -4 10 -3
0 -8 -4 -11 -10z"/>
<path d="M8195 13210 c-3 -5 -2 -10 4 -10 5 0 13 5 16 10 3 6 2 10 -4 10 -5 0
-13 -4 -16 -10z"/>
<path d="M8110 13190 c0 -5 5 -10 10 -10 6 0 10 5 10 10 0 6 -4 10 -10 10 -5
0 -10 -4 -10 -10z"/>
<path d="M8721 13144 c0 -11 3 -14 6 -6 3 7 2 16 -1 19 -3 4 -6 -2 -5 -13z"/>
<path d="M8363 13133 c9 -2 23 -2 30 0 6 3 -1 5 -18 5 -16 0 -22 -2 -12 -5z"/>
<path d="M8720 13103 c0 -10 7 -38 16 -63 11 -31 16 -83 16 -169 0 -69 4 -135
8 -147 6 -15 5 -24 -3 -28 -7 -2 -2 -5 11 -5 12 -1 22 3 22 7 0 5 8 17 18 28
22 24 40 69 46 114 2 19 9 59 15 89 11 56 7 91 -10 91 -5 0 -14 11 -19 25 -6
15 -17 25 -29 25 -11 0 -26 7 -35 15 -19 19 -24 19 -29 -2 -3 -11 -5 -7 -6 10
-1 29 -21 39 -21 10z"/>
<path d="M4650 13080 c0 -5 5 -10 10 -10 6 0 10 5 10 10 0 6 -4 10 -10 10 -5
0 -10 -4 -10 -10z"/>
<path d="M4666 13024 c-9 -24 -7 -28 9 -14 17 14 20 30 6 30 -5 0 -12 -7 -15
-16z"/>
<path d="M8948 12985 c-3 -14 -1 -28 3 -31 5 -3 9 9 9 25 0 38 -6 40 -12 6z"/>
<path d="M8310 12960 c0 -5 5 -10 11 -10 5 0 7 5 4 10 -3 6 -8 10 -11 10 -2 0
-4 -4 -4 -10z"/>
<path d="M8941 12903 c-6 -21 -11 -63 -11 -93 1 -48 2 -53 14 -37 12 16 23
167 12 167 -3 0 -10 -17 -15 -37z"/>
<path d="M8160 12770 c0 -5 5 -10 11 -10 5 0 7 5 4 10 -3 6 -8 10 -11 10 -2 0
-4 -4 -4 -10z"/>
<path d="M5030 12700 c0 -11 5 -20 10 -20 6 0 10 9 10 20 0 11 -4 20 -10 20
-5 0 -10 -9 -10 -20z"/>
<path d="M8753 12588 c1 -38 5 -68 10 -68 14 0 11 95 -4 120 -6 10 -8 -9 -6
-52z"/>
<path d="M6880 12559 c0 -5 5 -7 10 -4 6 3 10 8 10 11 0 2 -4 4 -10 4 -5 0
-10 -5 -10 -11z"/>
<path d="M6890 12531 c0 -5 -8 -12 -19 -16 -14 -4 -19 -16 -19 -52 -1 -26 -7
-50 -14 -54 -19 -12 -2 -22 18 -11 25 14 54 3 54 -22 1 -20 2 -20 14 -3 7 9
18 17 24 17 5 0 12 6 15 13 4 10 -3 12 -25 9 -20 -3 -29 -1 -24 6 4 6 -5 12
-21 14 l-28 4 25 12 c23 12 23 12 3 8 -13 -2 -23 0 -23 5 0 5 10 9 22 9 12 0
18 3 15 7 -4 3 -2 12 4 19 12 15 5 44 -11 44 -5 0 -10 -4 -10 -9z"/>
<path d="M5178 12453 c7 -3 16 -2 19 1 4 3 -2 6 -13 5 -11 0 -14 -3 -6 -6z"/>
<path d="M5221 12444 c0 -11 3 -14 6 -6 3 7 2 16 -1 19 -3 4 -6 -2 -5 -13z"/>
<path d="M5194 12412 c0 -10 6 -19 13 -19 8 0 9 6 2 19 -5 10 -11 18 -12 18
-2 0 -3 -8 -3 -18z"/>
<path d="M6881 12381 c-10 -6 -10 -10 -1 -16 13 -8 24 -1 19 14 -3 6 -10 7
-18 2z"/>
<path d="M7910 12381 c0 -5 5 -13 10 -16 6 -3 10 -2 10 4 0 5 -4 13 -10 16 -5
3 -10 2 -10 -4z"/>
<path d="M6848 12343 c7 -3 16 -2 19 1 4 3 -2 6 -13 5 -11 0 -14 -3 -6 -6z"/>
<path d="M5206 12323 c-12 -12 -6 -33 9 -33 8 0 15 6 15 14 0 17 -14 28 -24
19z"/>
<path d="M6860 12290 c0 -5 5 -10 11 -10 5 0 7 5 4 10 -3 6 -8 10 -11 10 -2 0
-4 -4 -4 -10z"/>
<path d="M7780 12183 c0 -26 1 -26 15 -7 19 25 19 34 0 34 -10 0 -15 -10 -15
-27z"/>
<path d="M6870 12160 c0 -5 7 -7 15 -4 8 4 15 8 15 10 0 2 -7 4 -15 4 -8 0
-15 -4 -15 -10z"/>
<path d="M7748 12153 c7 -3 16 -2 19 1 4 3 -2 6 -13 5 -11 0 -14 -3 -6 -6z"/>
<path d="M6905 12140 c3 -5 11 -10 16 -10 6 0 7 5 4 10 -3 6 -11 10 -16 10 -6
0 -7 -4 -4 -10z"/>
<path d="M7670 12125 c0 -8 2 -15 4 -15 2 0 11 -3 20 -6 23 -9 20 13 -4 26
-16 9 -20 8 -20 -5z"/>
<path d="M7775 12130 c-3 -5 -1 -10 4 -10 6 0 11 5 11 10 0 6 -2 10 -4 10 -3
0 -8 -4 -11 -10z"/>
<path d="M6858 12118 c16 -16 15 -28 -2 -28 -9 0 -12 -8 -8 -26 6 -30 19 -21
31 23 7 25 6 33 -6 37 -23 9 -28 7 -15 -6z"/>
<path d="M5120 12095 c0 -8 5 -15 10 -15 6 0 10 7 10 15 0 8 -4 15 -10 15 -5
0 -10 -7 -10 -15z"/>
<path d="M7680 12079 c0 -5 -5 -7 -12 -3 -8 5 -9 2 -5 -10 4 -10 7 -22 7 -27
0 -5 5 -9 11 -9 5 0 7 4 4 10 -3 5 -1 19 5 30 7 13 7 20 0 20 -5 0 -10 -5 -10
-11z"/>
<path d="M5795 12030 c3 -5 8 -10 11 -10 2 0 4 5 4 10 0 6 -5 10 -11 10 -5 0
-7 -4 -4 -10z"/>
<path d="M7632 12015 c-6 -14 -10 -25 -7 -25 7 0 35 32 35 41 0 18 -17 9 -28
-16z"/>
<path d="M6871 12014 c0 -11 3 -14 6 -6 3 7 2 16 -1 19 -3 4 -6 -2 -5 -13z"/>
<path d="M7710 12010 c0 -5 7 -7 15 -4 8 4 15 8 15 10 0 2 -7 4 -15 4 -8 0
-15 -4 -15 -10z"/>
<path d="M5818 11983 c7 -3 16 -2 19 1 4 3 -2 6 -13 5 -11 0 -14 -3 -6 -6z"/>
<path d="M6721 11934 c0 -11 3 -14 6 -6 3 7 2 16 -1 19 -3 4 -6 -2 -5 -13z"/>
<path d="M6950 11884 c0 -17 22 -14 28 4 2 7 -3 12 -12 12 -9 0 -16 -7 -16
-16z"/>
<path d="M7793 11860 c2 -24 13 -26 21 -4 8 22 8 24 -8 24 -9 0 -14 -9 -13
-20z"/>
<path d="M5392 11855 c-7 -8 -9 -15 -4 -15 5 0 15 7 22 15 16 19 -1 19 -18 0z"/>
<path d="M5665 11839 c-17 -6 -15 -8 10 -9 17 -1 24 -4 18 -7 -7 -2 -13 -9
-13 -15 0 -7 4 -7 13 0 6 5 20 11 31 13 14 3 12 6 -11 15 -16 6 -38 7 -48 3z"/>
<path d="M5765 11840 c-8 -13 15 -13 35 0 12 8 11 10 -7 10 -12 0 -25 -4 -28
-10z"/>
<path d="M5360 11821 c5 -10 17 -24 26 -32 16 -12 17 -12 11 4 -4 10 -7 22 -7
27 0 4 -9 10 -20 13 -16 4 -18 2 -10 -12z"/>
<path d="M5650 11780 c0 -5 5 -10 10 -10 6 0 10 5 10 10 0 6 -4 10 -10 10 -5
0 -10 -4 -10 -10z"/>
<path d="M5671 11767 c-8 -10 -7 -18 3 -32 12 -17 13 -17 20 0 4 10 2 22 -5
25 -8 6 -7 9 2 13 8 3 9 6 3 6 -6 1 -17 -5 -23 -12z"/>
<path d="M8686 11747 c3 -10 9 -15 12 -12 3 3 0 11 -7 18 -10 9 -11 8 -5 -6z"/>
<path d="M5865 11740 c3 -5 11 -10 16 -10 6 0 7 5 4 10 -3 6 -11 10 -16 10 -6
0 -7 -4 -4 -10z"/>
<path d="M5790 11710 c0 -5 5 -10 10 -10 6 0 10 5 10 10 0 6 -4 10 -10 10 -5
0 -10 -4 -10 -10z"/>
<path d="M8670 11714 c0 -6 7 -19 15 -30 8 -10 14 -14 14 -9 0 6 -6 19 -14 29
-8 11 -15 15 -15 10z"/>
<path d="M5365 11679 c-4 -11 -4 -23 -1 -26 3 -4 6 1 6 10 0 10 5 17 10 17 6
0 10 -7 10 -15 0 -8 5 -15 10 -15 6 0 10 6 10 14 0 8 6 16 13 19 6 2 8 8 4 13
-4 5 -13 2 -18 -6 -8 -11 -12 -12 -16 -2 -7 18 -21 14 -28 -9z"/>
<path d="M8685 11621 c-3 -5 -1 -12 5 -16 5 -3 10 1 10 9 0 18 -6 21 -15 7z"/>
<path d="M8630 11570 c0 -5 5 -10 10 -10 6 0 10 5 10 10 0 6 -4 10 -10 10 -5
0 -10 -4 -10 -10z"/>
<path d="M8671 11554 c0 -11 3 -14 6 -6 3 7 2 16 -1 19 -3 4 -6 -2 -5 -13z"/>
<path d="M7630 11491 c0 -5 5 -13 10 -16 6 -3 10 -2 10 4 0 5 -4 13 -10 16 -5
3 -10 2 -10 -4z"/>
<path d="M8682 11460 c0 -14 2 -19 5 -12 2 6 2 18 0 25 -3 6 -5 1 -5 -13z"/>
<path d="M8700 11469 c0 -5 5 -7 10 -4 6 3 10 8 10 11 0 2 -4 4 -10 4 -5 0
-10 -5 -10 -11z"/>
<path d="M7490 11439 c0 -5 5 -7 10 -4 6 3 10 8 10 11 0 2 -4 4 -10 4 -5 0
-10 -5 -10 -11z"/>
<path d="M8450 11396 c0 -9 5 -16 10 -16 6 0 10 4 10 9 0 6 -4 13 -10 16 -5 3
-10 -1 -10 -9z"/>
<path d="M8705 11320 c-3 -5 -1 -10 4 -10 6 0 11 5 11 10 0 6 -2 10 -4 10 -3
0 -8 -4 -11 -10z"/>
<path d="M8075 11240 c3 -5 8 -10 11 -10 2 0 4 5 4 10 0 6 -5 10 -11 10 -5 0
-7 -4 -4 -10z"/>
<path d="M8101 11227 c2 -1 13 -9 24 -17 19 -14 19 -14 6 3 -7 9 -18 17 -24
17 -6 0 -8 -1 -6 -3z"/>
<path d="M8287 11201 c4 -16 8 -17 18 -8 9 9 10 14 1 19 -19 13 -24 9 -19 -11z"/>
<path d="M8247 11193 c-3 -5 3 -20 14 -33 18 -24 19 -24 19 -4 0 23 -25 50
-33 37z"/>
<path d="M8290 11100 c0 -5 5 -10 11 -10 5 0 7 5 4 10 -3 6 -8 10 -11 10 -2 0
-4 -4 -4 -10z"/>
<path d="M5492 10143 c-6 -2 -10 -9 -7 -13 7 -11 35 -2 35 11 0 10 -8 10 -28
2z"/>
<path d="M8640 10113 c0 -15 18 -35 27 -32 5 2 1 12 -9 22 -10 9 -18 14 -18
10z"/>
<path d="M5788 10043 c7 -3 16 -2 19 1 4 3 -2 6 -13 5 -11 0 -14 -3 -6 -6z"/>
<path d="M5836 9745 c-3 -9 -6 -22 -5 -28 0 -7 5 -1 10 12 5 13 8 26 5 28 -2
2 -6 -3 -10 -12z"/>
<path d="M5775 9698 c-9 -18 -10 -27 -3 -20 19 19 25 14 21 -20 l-4 -33 20 25
21 25 1 -25 c1 -16 3 -19 6 -8 5 19 -24 88 -37 88 -5 0 -16 -15 -25 -32z"/>
<path d="M5100 9584 c0 -9 5 -14 12 -12 18 6 21 28 4 28 -9 0 -16 -7 -16 -16z"/>
<path d="M7590 9240 c-13 -8 -13 -11 1 -26 15 -15 17 -14 17 10 0 14 -1 26 -2
26 0 0 -8 -5 -16 -10z"/>
<path d="M7506 9171 c-4 -5 -2 -12 3 -15 5 -4 12 -2 15 3 4 5 2 12 -3 15 -5 4
-12 2 -15 -3z"/>
<path d="M6191 9156 c-13 -16 0 -30 37 -39 22 -5 22 -5 5 24 -19 33 -26 35
-42 15z"/>
<path d="M7360 9108 c0 -13 7 -18 28 -17 21 1 22 2 7 6 -11 3 -23 10 -27 17
-5 7 -8 5 -8 -6z"/>
<path d="M6821 9096 c11 -9 69 -14 69 -6 0 6 -16 10 -37 10 -20 0 -34 -2 -32
-4z"/>
<path d="M6818 9063 c7 -3 16 -2 19 1 4 3 -2 6 -13 5 -11 0 -14 -3 -6 -6z"/>
<path d="M7068 9063 c7 -3 16 -2 19 1 4 3 -2 6 -13 5 -11 0 -14 -3 -6 -6z"/>
<path d="M7368 9063 c6 -2 18 -2 25 0 6 3 1 5 -13 5 -14 0 -19 -2 -12 -5z"/>
<path d="M7030 9040 c0 -5 5 -10 11 -10 5 0 7 5 4 10 -3 6 -8 10 -11 10 -2 0
-4 -4 -4 -10z"/>
<path d="M6450 9030 c-13 -8 -13 -10 2 -10 9 0 20 5 23 10 8 13 -5 13 -25 0z"/>
<path d="M6880 9010 c0 -5 5 -10 11 -10 5 0 7 5 4 10 -3 6 -8 10 -11 10 -2 0
-4 -4 -4 -10z"/>
<path d="M6445 9000 c3 -5 8 -10 11 -10 2 0 4 5 4 10 0 6 -5 10 -11 10 -5 0
-7 -4 -4 -10z"/>
<path d="M7050 8990 c0 -11 5 -20 10 -20 6 0 10 9 10 20 0 11 -4 20 -10 20 -5
0 -10 -9 -10 -20z"/>
<path d="M7286 8933 c-3 -10 -9 -25 -12 -33 -3 -8 4 -4 15 9 22 25 27 41 12
41 -5 0 -11 -8 -15 -17z"/>
<path d="M6500 8921 c0 -5 5 -13 10 -16 6 -3 10 -2 10 4 0 5 -4 13 -10 16 -5
3 -10 2 -10 -4z"/>
<path d="M7543 8865 c0 -33 2 -45 4 -27 2 18 2 45 0 60 -2 15 -4 0 -4 -33z"/>
<path d="M6565 8884 c-40 -14 -40 -14 -5 -9 19 3 39 10 44 15 12 12 11 12 -39
-6z"/>
<path d="M6833 8865 c-15 -16 -16 -25 -5 -25 4 0 13 9 20 20 14 23 3 26 -15 5z"/>
<path d="M7585 8869 c-4 -6 -5 -12 -2 -15 2 -3 7 2 10 11 7 17 1 20 -8 4z"/>
<path d="M6741 8844 c0 -11 3 -14 6 -6 3 7 2 16 -1 19 -3 4 -6 -2 -5 -13z"/>
<path d="M7566 8821 c-4 -7 -5 -15 -2 -18 9 -9 19 4 14 18 -4 11 -6 11 -12 0z"/>
<path d="M6734 8805 c8 -8 17 -15 20 -15 3 0 3 7 0 15 -4 8 -13 15 -21 15 -12
0 -12 -2 1 -15z"/>
<path d="M6698 8793 c7 -3 16 -2 19 1 4 3 -2 6 -13 5 -11 0 -14 -3 -6 -6z"/>
<path d="M6820 8749 c0 -5 5 -7 10 -4 6 3 10 8 10 11 0 2 -4 4 -10 4 -5 0 -10
-5 -10 -11z"/>
<path d="M8466 8751 c-4 -7 -5 -15 -2 -18 9 -9 19 4 14 18 -4 11 -6 11 -12 0z"/>
<path d="M7632 8715 c0 -16 2 -22 5 -12 2 9 2 23 0 30 -3 6 -5 -1 -5 -18z"/>
<path d="M6580 8656 c0 -9 30 -14 35 -6 4 6 -3 10 -14 10 -12 0 -21 -2 -21 -4z"/>
<path d="M8360 8630 c0 -5 5 -10 10 -10 6 0 10 5 10 10 0 6 -4 10 -10 10 -5 0
-10 -4 -10 -10z"/>
<path d="M7631 8614 c0 -11 3 -14 6 -6 3 7 2 16 -1 19 -3 4 -6 -2 -5 -13z"/>
<path d="M7838 8555 c2 -14 6 -25 8 -25 2 0 4 11 4 25 0 14 -4 25 -9 25 -4 0
-6 -11 -3 -25z"/>
<path d="M6090 8530 c0 -6 11 -8 28 -4 39 10 40 14 4 14 -18 0 -32 -5 -32 -10z"/>
<path d="M7735 8520 c3 -5 8 -10 11 -10 2 0 4 5 4 10 0 6 -5 10 -11 10 -5 0
-7 -4 -4 -10z"/>
<path d="M6615 8510 c3 -5 8 -10 11 -10 2 0 4 5 4 10 0 6 -5 10 -11 10 -5 0
-7 -4 -4 -10z"/>
<path d="M7937 8498 c-2 -7 -1 -22 4 -33 6 -16 8 -14 8 13 1 33 -4 41 -12 20z"/>
<path d="M7707 8493 c-4 -3 -7 -11 -7 -17 0 -6 5 -5 12 2 6 6 9 14 7 17 -3 3
-9 2 -12 -2z"/>
<path d="M6520 8480 c0 -5 5 -10 11 -10 5 0 7 5 4 10 -3 6 -8 10 -11 10 -2 0
-4 -4 -4 -10z"/>
<path d="M6307 8459 c4 -13 8 -18 11 -10 2 7 -1 18 -6 23 -8 8 -9 4 -5 -13z"/>
<path d="M6206 8402 c-3 -4 4 -9 15 -9 23 -2 25 3 4 10 -8 4 -16 3 -19 -1z"/>
<path d="M6590 8385 c0 -5 5 -17 10 -25 5 -8 10 -10 10 -5 0 6 -5 17 -10 25
-5 8 -10 11 -10 5z"/>
<path d="M6445 8290 c3 -5 8 -10 11 -10 2 0 4 5 4 10 0 6 -5 10 -11 10 -5 0
-7 -4 -4 -10z"/>
<path d="M6720 8240 c0 -5 5 -10 11 -10 5 0 7 5 4 10 -3 6 -8 10 -11 10 -2 0
-4 -4 -4 -10z"/>
</g>
</svg>
