<svg width="408.975" height="114" viewBox="0 0 408.975 114" xmlns="http://www.w3.org/2000/svg"><path d="M41.938 26.944h37.044q1.807 0 1.807 1.807v8.05q0 1.889-1.807 1.889H42.43q-3.204 0-5.298.533-2.095.534-3.327 1.807-1.232 1.274-1.766 3.41-.534 2.135-.534 5.42v11.664q0 3.285.534 5.462.534 2.176 1.766 3.45 1.232 1.273 3.327 1.807 2.094.534 5.298.534h36.55q1.808 0 1.808 1.807v8.049q0 1.807-1.807 1.807H41.938q-6.243 0-10.596-1.15t-7.105-3.737q-2.751-2.587-4.024-6.735-1.274-4.148-1.274-10.062V48.628q0-5.914 1.274-10.02 1.273-4.107 4.024-6.695 2.752-2.587 7.105-3.778 4.353-1.191 10.596-1.191zm49.036 12.403h8.05q1.806 0 1.806 1.889v23.737q0 2.629.329 4.354.328 1.725 1.232 2.751.903 1.027 2.546 1.479 1.643.452 4.353.452h21.11q2.71 0 4.435-.452 1.725-.452 2.752-1.479 1.026-1.026 1.437-2.751.41-1.725.41-4.354V41.236q0-1.89 1.808-1.89h8.05q1.806 0 1.806 1.89v26.612q0 4.436-.985 7.598-.986 3.162-3.245 5.175-2.259 2.012-6.037 2.915-3.778.904-9.281.904h-22.917q-5.585 0-9.322-.904-3.738-.903-5.996-2.915-2.26-2.013-3.245-5.175-.985-3.162-.985-7.598V41.236q0-1.89 1.889-1.89zm89.612 0h23.573q5.503 0 9.281.944 3.779.945 6.037 2.957 2.26 2.013 3.245 5.175.986 3.162.986 7.598v26.612q0 1.807-1.807 1.807h-8.05q-1.807 0-1.807-1.807v-23.82q0-2.546-.328-4.312-.329-1.766-1.274-2.793-.944-1.026-2.587-1.478-1.643-.452-4.271-.452h-21.849q-2.628 0-4.353.452-1.725.452-2.751 1.478-1.027 1.027-1.438 2.793-.41 1.766-.41 4.312v23.82q0 1.807-1.808 1.807h-8.049q-1.89 0-1.89-1.807V56.021q0-4.436.987-7.598.985-3.162 3.244-5.175 2.259-2.012 5.996-2.957 3.737-.944 9.323-.944zm53.307 45.093zm1.889-45.093h8.05q1.806 0 1.806 1.889v41.397q0 1.807-1.807 1.807h-8.05q-1.806 0-1.806-1.807V41.236q0-1.89 1.807-1.89zm0-16.674h8.05q1.806 0 1.806 1.807v7.803q0 1.889-1.807 1.889h-8.05q-1.888 0-1.888-1.89V24.48q0-1.807 1.889-1.807zm39.097 16.674h23.245q5.503 0 9.281.944 3.779.945 6.037 2.957 2.26 2.013 3.245 5.175.986 3.162.986 7.598v11.827q0 4.436-.986 7.598t-3.245 5.175q-2.258 2.012-6.037 2.915-3.778.904-9.281.904h-23.245q-5.585 0-9.323-.904-3.737-.903-5.996-2.915-2.258-2.013-3.244-5.175-.986-3.162-.986-7.598V56.021q0-4.436.986-7.598t3.244-5.175q2.26-2.012 5.996-2.957 3.738-.944 9.323-.944zm-7.803 18.645v7.803q0 2.628.41 4.353.411 1.725 1.438 2.752 1.027 1.026 2.752 1.478 1.725.452 4.353.452h20.945q2.71 0 4.435-.452 1.725-.452 2.752-1.478 1.027-1.027 1.437-2.752.411-1.725.411-4.353v-7.803q0-2.546-.41-4.271-.411-1.725-1.438-2.793t-2.752-1.478q-1.725-.411-4.435-.411h-20.945q-2.628 0-4.353.41-1.725.411-2.752 1.479-1.027 1.068-1.437 2.793-.411 1.725-.411 4.27zm79.591-18.645h23.573q5.504 0 9.282.944 3.778.945 6.037 2.957 2.259 2.013 3.244 5.175.986 3.162.986 7.598v26.612q0 1.807-1.807 1.807h-8.05q-1.806 0-1.806-1.807v-23.82q0-2.546-.329-4.312-.329-1.766-1.273-2.793-.945-1.026-2.587-1.478-1.643-.452-4.272-.452h-21.848q-2.629 0-4.353.452-1.725.452-2.752 1.478-1.027 1.027-1.437 2.793-.411 1.766-.411 4.312v23.82q0 1.807-1.807 1.807h-8.05q-1.889 0-1.889-1.807V56.021q0-4.436.986-7.598t3.244-5.175q2.26-2.012 5.996-2.957 3.738-.944 9.323-.944z" fill="#fff"/></svg>